<svg width="48" height="48" viewBox="0 0 48 48" fill="none" xmlns="http://www.w3.org/2000/svg">
<path d="M26.5015 38.1115V39.1115H27.5015V38.1115H26.5015ZM26.5015 25.0542V24.0542H25.5015V25.0542H26.5015ZM30.1058 25.0542V26.0542H31.0053L31.1002 25.1598L30.1058 25.0542ZM30.5835 20.5546L31.5779 20.6602L31.6953 19.5546H30.5835V20.5546ZM26.5015 20.5546L25.5015 20.5519L25.4987 21.5546H26.5015V20.5546ZM26.5076 18.3025L27.5076 18.3052V18.3025H26.5076ZM30.558 16.5001V17.5001H31.558V16.5001H30.558ZM30.558 12H31.558V11H30.558V12ZM21.099 20.5551V21.5551H22.099V20.5551H21.099ZM18.3999 20.5551V19.5551H17.3999V20.5551H18.3999ZM18.3999 25.0547H17.3999V26.0547H18.3999V25.0547ZM21.099 25.0547H22.099V24.0547H21.099V25.0547ZM21.099 38.1115H20.099V39.1115H21.099V38.1115ZM27.5015 38.1115V25.0542H25.5015V38.1115H27.5015ZM26.5015 26.0542H30.1058V24.0542H26.5015V26.0542ZM31.1002 25.1598L31.5779 20.6602L29.5891 20.449L29.1114 24.9486L31.1002 25.1598ZM30.5835 19.5546H26.5015V21.5546H30.5835V19.5546ZM27.5015 20.5573L27.5076 18.3052L25.5076 18.2998L25.5015 20.5519L27.5015 20.5573ZM27.5076 18.3025C27.5076 18.0113 27.5158 17.8239 27.5381 17.6879C27.5592 17.5597 27.5819 17.5515 27.5606 17.5787C27.494 17.6636 27.5132 17.5001 28.3047 17.5001V15.5001C27.4105 15.5001 26.5312 15.6511 25.9875 16.3437C25.7275 16.6748 25.6171 17.0439 25.5646 17.3637C25.5133 17.6756 25.5076 18.0069 25.5076 18.3025H27.5076ZM28.3047 17.5001H30.558V15.5001H28.3047V17.5001ZM31.558 16.5001V12H29.558V16.5001H31.558ZM30.558 11H26.9531V13H30.558V11ZM26.9531 11C24.6328 11 22.8478 11.5863 21.6656 12.8739C20.4991 14.1445 20.099 15.9063 20.099 17.8536H22.099C22.099 16.1301 22.4608 14.9651 23.1389 14.2265C23.8013 13.5051 24.9433 13 26.9531 13V11ZM20.099 17.8536V20.5551H22.099V17.8536H20.099ZM21.099 19.5551H18.3999V21.5551H21.099V19.5551ZM17.3999 20.5551V25.0547H19.3999V20.5551H17.3999ZM18.3999 26.0547H21.099V24.0547H18.3999V26.0547ZM20.099 25.0547V38.1115H22.099V25.0547H20.099ZM21.099 39.1115H26.5015V37.1115H21.099V39.1115Z" fill="#808080"/>
</svg>
