<svg width="508" height="410" viewBox="0 0 508 410" fill="none" xmlns="http://www.w3.org/2000/svg">
<g clip-path="url(#clip0_13_20)">
<rect width="508" height="410" rx="10" fill="white"/>
<rect x="326" y="56" width="165" height="220" rx="5" fill="#6ED7AB"/>
<rect y="43" width="130" height="418" fill="#6ED7AB"/>
<rect width="508" height="43" fill="#6ED7AB"/>
<rect x="146" y="53" width="29" height="29" rx="5" fill="#1F7B55"/>
<rect x="12" y="7" width="29" height="29" rx="5" fill="#52C193"/>
<rect x="12" y="389" width="67" height="8" rx="4" fill="white"/>
<rect x="88" y="389" width="29" height="8" rx="4" fill="white"/>
<rect x="50" y="7" width="29" height="29" rx="5" fill="#52C193"/>
<rect x="12" y="53" width="29" height="29" rx="5" fill="#1F7B55"/>
<rect x="88" y="7" width="29" height="29" rx="5" fill="#52C193"/>
<rect x="146" y="7" width="29" height="29" rx="5" fill="#D9D9D9"/>
<rect x="342" y="7" width="109" height="29" rx="5" fill="#52C193"/>
<rect x="183" y="67" width="109" height="10" rx="5" fill="#C0F5DF"/>
<rect x="462" y="7" width="29" height="29" rx="5" fill="white"/>
<rect x="183" y="81" width="95" height="10" rx="5" fill="#C0F5DF"/>
<rect x="374" y="67" width="110" height="10" rx="5" fill="#1F7B55"/>
<rect x="374" y="84" width="81" height="10" rx="5" fill="#D9D9D9"/>
<rect x="336" y="101" width="148" height="10" rx="5" fill="#D9D9D9"/>
<rect x="334" y="239" width="150" height="10" rx="5" fill="#D9D9D9"/>
<rect x="334" y="256" width="150" height="10" rx="5" fill="#D9D9D9"/>
<rect x="183" y="53" width="85" height="10" rx="5" fill="#1F7B55"/>
<rect x="146" y="115" width="29" height="29" rx="5" fill="#1F7B55"/>
<rect x="183" y="129" width="54" height="10" rx="5" fill="#C0F5DF"/>
<path d="M336 72C336 69.2386 338.239 67 341 67H360C362.761 67 365 69.2386 365 72V91C365 93.7614 362.761 96 360 96H341C338.239 96 336 93.7614 336 91V72Z" fill="#1F7B55"/>
<rect x="183" y="143" width="95" height="10" rx="5" fill="#C0F5DF"/>
<rect x="183" y="115" width="98" height="10" rx="5" fill="#1F7B55"/>
<rect x="146" y="177" width="29" height="29" rx="5" fill="#1F7B55"/>
<rect x="183" y="191" width="68" height="10" rx="5" fill="#C0F5DF"/>
<rect x="183" y="205" width="44" height="10" rx="5" fill="#C0F5DF"/>
<rect x="183" y="177" width="103" height="10" rx="5" fill="#1F7B55"/>
<rect x="146" y="239" width="29" height="29" rx="5" fill="#1F7B55"/>
<rect x="146" y="377" width="305" height="20" rx="5" fill="#6ED7AB"/>
<rect x="462" y="377" width="29" height="20" rx="5" fill="#52C193"/>
<rect x="183" y="253" width="85" height="10" rx="5" fill="#C0F5DF"/>
<rect x="183" y="267" width="95" height="10" rx="5" fill="#C0F5DF"/>
<rect x="183" y="239" width="68" height="10" rx="5" fill="#1F7B55"/>
<rect x="12" y="99" width="74" height="10" rx="5" fill="#1F7B55"/>
<rect x="12" y="119" width="105" height="10" rx="5" fill="#D9D9D9"/>
</g>
<defs>
<clipPath id="clip0_13_20">
<rect width="508" height="410" rx="10" fill="white"/>
</clipPath>
</defs>
</svg>
