<svg width="492" height="404" viewBox="0 0 492 404" fill="none" xmlns="http://www.w3.org/2000/svg">
<g clip-path="url(#clip0_42_245)">
<path d="M66.2935 382.727C65.7291 382.753 65.1704 382.605 64.693 382.303C64.2156 382 63.8427 381.558 63.6247 381.037C63.4068 380.516 63.3543 379.94 63.4745 379.387C63.5946 378.835 63.8816 378.333 64.2965 377.949C64.3659 377.673 64.4158 377.475 64.4853 377.198C64.4604 377.138 64.4354 377.078 64.4103 377.018C63.8417 375.675 62.8889 374.529 61.6716 373.725C60.4543 372.922 59.0268 372.496 57.5684 372.501C56.11 372.507 54.6856 372.943 53.4744 373.756C52.2631 374.569 51.3188 375.721 50.7602 377.069C48.5277 382.448 45.6853 387.836 44.9854 393.524C44.6772 396.038 44.8072 398.586 45.3697 401.056C40.1261 389.613 37.4032 377.176 37.3857 364.588C37.3846 361.429 37.56 358.273 37.9112 355.134C38.2014 352.561 38.604 350.005 39.119 347.469C41.9295 333.704 47.9636 320.803 56.726 309.824C60.9669 307.51 64.3967 303.95 66.553 299.625C67.3342 298.07 67.8862 296.411 68.1921 294.698C67.7137 294.76 67.2275 294.8 66.7491 294.831C66.6001 294.839 66.4432 294.847 66.2942 294.855L66.238 294.857C65.7122 294.881 65.1908 294.752 64.7366 294.486C64.2823 294.22 63.9146 293.828 63.6777 293.358C63.4408 292.888 63.3448 292.359 63.4012 291.836C63.4576 291.312 63.6641 290.816 63.9957 290.407C64.2023 290.153 64.409 289.899 64.6158 289.645C64.9296 289.253 65.2511 288.868 65.5648 288.476C65.601 288.439 65.635 288.399 65.6667 288.358C66.0276 287.911 66.3883 287.472 66.7491 287.024C66.0906 286.002 65.2048 285.145 64.161 284.522C60.5454 282.403 55.5574 283.87 52.9458 287.142C50.3263 290.414 49.8322 295.004 50.7419 299.091C51.6366 302.57 53.1165 305.87 55.1183 308.851C54.9221 309.103 54.7182 309.346 54.5221 309.597C50.938 314.207 47.8141 319.158 45.1953 324.378C45.8322 318.53 45.0721 312.615 42.9776 307.118C40.8548 301.995 36.876 297.68 33.3722 293.251C29.1635 287.932 20.5333 290.253 19.7918 296.997C19.7847 297.062 19.7777 297.127 19.7708 297.193C20.2912 297.486 20.8007 297.798 21.2991 298.128C21.9253 298.546 22.4105 299.144 22.6912 299.843C22.9718 300.543 23.0348 301.31 22.8719 302.046C22.709 302.781 22.3278 303.45 21.7783 303.966C21.2288 304.481 20.5365 304.818 19.7922 304.932L19.716 304.944C19.9014 306.821 20.2291 308.68 20.6963 310.507C22.0501 315.607 24.4424 320.371 27.7232 324.503C31.0041 328.634 35.1027 332.043 39.7621 334.515C40.068 334.672 40.3661 334.829 40.6719 334.978C38.0409 342.437 36.3905 350.207 35.7623 358.092C35.4067 362.744 35.4277 367.417 35.8251 372.065L35.8015 371.9C34.7976 366.731 32.0412 362.067 27.9979 358.696C21.9927 353.761 13.5083 351.944 7.0297 347.977C6.34118 347.535 5.54058 347.299 4.72236 347.297C3.90415 347.295 3.10244 347.527 2.41176 347.966C1.72109 348.404 1.17027 349.032 0.824283 349.774C0.478298 350.515 0.351573 351.341 0.459048 352.152C0.467727 352.21 0.476573 352.267 0.485557 352.325C1.45132 352.719 2.39163 353.172 3.30106 353.682C3.82149 353.976 4.33096 354.288 4.8294 354.618C5.45558 355.036 5.94078 355.634 6.22143 356.333C6.50208 357.032 6.56507 357.8 6.40217 358.536C6.23928 359.271 5.85809 359.94 5.30854 360.455C4.75899 360.971 4.06672 361.308 3.32242 361.422L3.24615 361.434C3.19124 361.442 3.1442 361.45 3.08938 361.458C4.73953 365.399 7.05557 369.027 9.93606 372.183C13.4945 376.003 17.7952 379.055 22.5747 381.153C27.3542 383.251 32.5117 384.35 37.7309 384.383H37.7387C39.1555 390.542 41.2083 396.537 43.864 402.272H65.7452C65.8237 402.028 65.8943 401.777 65.9649 401.534C63.9395 401.661 61.9061 401.54 59.9102 401.173C61.5337 399.18 63.1571 397.172 64.7806 395.179C64.8168 395.142 64.8508 395.102 64.8826 395.061C65.706 394.041 66.5374 393.029 67.3609 392.009L67.3613 392.008C67.4052 388.882 67.0466 385.762 66.2943 382.728L66.2935 382.727Z" fill="#F2F2F2"/>
<path d="M425.55 382.727C426.115 382.753 426.674 382.605 427.151 382.303C427.628 382 428.001 381.558 428.219 381.037C428.437 380.515 428.49 379.94 428.37 379.387C428.249 378.835 427.962 378.333 427.548 377.949C427.478 377.673 427.428 377.475 427.359 377.198C427.384 377.138 427.409 377.078 427.434 377.018C428.002 375.675 428.955 374.529 430.172 373.725C431.39 372.922 432.817 372.496 434.276 372.501C435.734 372.507 437.158 372.943 438.37 373.756C439.581 374.569 440.525 375.721 441.084 377.069C443.316 382.448 446.159 387.836 446.859 393.524C447.167 396.038 447.037 398.586 446.474 401.056C451.718 389.613 454.441 377.176 454.458 364.588C454.459 361.429 454.284 358.273 453.933 355.134C453.643 352.561 453.24 350.005 452.725 347.469C449.915 333.704 443.88 320.803 435.118 309.824C430.877 307.51 427.447 303.95 425.291 299.625C424.51 298.07 423.958 296.411 423.652 294.698C424.13 294.76 424.616 294.8 425.095 294.831C425.244 294.839 425.401 294.847 425.55 294.855L425.606 294.857C426.132 294.881 426.653 294.752 427.107 294.486C427.562 294.22 427.929 293.828 428.166 293.358C428.403 292.888 428.499 292.359 428.443 291.836C428.386 291.312 428.18 290.816 427.848 290.407C427.642 290.153 427.435 289.899 427.228 289.645C426.914 289.253 426.593 288.868 426.279 288.476C426.243 288.439 426.209 288.399 426.177 288.358C425.816 287.911 425.456 287.472 425.095 287.024C425.753 286.002 426.639 285.145 427.683 284.522C431.299 282.403 436.287 283.87 438.898 287.142C441.518 290.414 442.012 295.004 441.102 299.091C440.207 302.57 438.728 305.87 436.726 308.851C436.922 309.103 437.126 309.346 437.322 309.597C440.906 314.207 444.03 319.158 446.649 324.378C446.012 318.53 446.772 312.615 448.866 307.118C450.989 301.995 454.968 297.68 458.472 293.251C462.68 287.932 471.311 290.253 472.052 296.997C472.059 297.062 472.066 297.127 472.073 297.193C471.553 297.486 471.043 297.798 470.545 298.128C469.919 298.546 469.433 299.144 469.153 299.843C468.872 300.543 468.809 301.31 468.972 302.046C469.135 302.781 469.516 303.45 470.066 303.966C470.615 304.481 471.308 304.818 472.052 304.932L472.128 304.944C471.943 306.821 471.615 308.68 471.148 310.507C469.794 315.607 467.402 320.371 464.121 324.503C460.84 328.634 456.741 332.043 452.082 334.515C451.776 334.672 451.478 334.829 451.172 334.978C453.803 342.437 455.454 350.207 456.082 358.092C456.437 362.744 456.416 367.417 456.019 372.065L456.043 371.9C457.046 366.731 459.803 362.067 463.846 358.696C469.851 353.761 478.336 351.944 484.814 347.977C485.503 347.535 486.303 347.299 487.122 347.297C487.94 347.295 488.742 347.527 489.432 347.966C490.123 348.404 490.674 349.032 491.02 349.773C491.366 350.515 491.493 351.34 491.385 352.152C491.376 352.21 491.368 352.267 491.359 352.325C490.393 352.719 489.452 353.172 488.543 353.682C488.023 353.976 487.513 354.288 487.015 354.618C486.389 355.036 485.903 355.634 485.623 356.333C485.342 357.032 485.279 357.8 485.442 358.536C485.605 359.271 485.986 359.94 486.536 360.455C487.085 360.97 487.777 361.308 488.522 361.422L488.598 361.434C488.653 361.442 488.7 361.45 488.755 361.458C487.105 365.399 484.789 369.027 481.908 372.183C478.35 376.003 474.049 379.055 469.269 381.153C464.49 383.251 459.332 384.35 454.113 384.383H454.105C452.689 390.542 450.636 396.537 447.98 402.272H426.099C426.02 402.028 425.95 401.777 425.879 401.534C427.905 401.661 429.938 401.54 431.934 401.173C430.31 399.18 428.687 397.172 427.063 395.179C427.027 395.142 426.993 395.102 426.961 395.061C426.138 394.041 425.307 393.029 424.483 392.009L424.483 392.008C424.439 388.882 424.797 385.762 425.55 382.728L425.55 382.727Z" fill="#F2F2F2"/>
<path d="M154.602 392.484H159.9L162.421 372.042H154.602V392.484Z" fill="#9E616A"/>
<path d="M152.873 388.854L161.336 388.348V391.976L169.383 397.535C169.781 397.81 170.08 398.204 170.237 398.661C170.395 399.118 170.402 399.613 170.259 400.074C170.115 400.536 169.827 400.939 169.438 401.225C169.049 401.512 168.579 401.666 168.096 401.666H158.02L156.283 398.078L155.605 401.666H151.806L152.873 388.854Z" fill="#1C1C1C"/>
<g filter="url(#filter0_d_42_245)">
<path d="M88.2048 387.981L93.1269 389.941L103.026 371.882L95.7618 368.989L88.2048 387.981Z" fill="#9E616A"/>
</g>
<g filter="url(#filter1_d_42_245)">
<path d="M87.9401 383.969L95.9904 386.631L94.6493 390.001L100.07 398.144C100.338 398.546 100.47 399.023 100.448 399.506C100.425 399.988 100.249 400.451 99.9448 400.826C99.6407 401.202 99.2246 401.47 98.7573 401.592C98.29 401.714 97.7959 401.684 97.3472 401.505L87.9854 397.777L87.6983 393.801L85.7417 396.884L82.2119 395.478L87.9401 383.969Z" fill="#1C1C1C"/>
</g>
<g filter="url(#filter2_d_42_245)">
<path d="M143.923 331.657L135.089 290.415L121.295 336.238L99.452 379.689L99.3363 379.92L92.4172 376.193C91.4407 358.55 93.7599 342.017 102.242 327.56L106.259 287.879C106.382 286.523 109.378 254.691 118.865 249.047L121.644 242.709L149.278 235.881L149.378 235.995C152.035 238.982 153.791 242.663 154.44 246.609L162.697 296.651L162.702 296.679L160.488 331.589L163.517 383.093H152.558C145.779 370.333 142.901 353.187 143.923 331.657Z" fill="#1C1C1C"/>
</g>
<path d="M278.885 163.37C278.885 175.091 296.284 195.676 300.101 184.593C304.773 171.026 314.739 162.425 321.316 163.37C332.913 165.037 311.817 142.147 300.101 142.147C294.474 142.147 289.078 144.383 285.099 148.363C281.121 152.343 278.885 157.741 278.885 163.37Z" fill="#E6E6E6"/>
<path d="M274.429 96.9039C271.678 108.297 283.928 118.127 295.644 118.127C298.43 118.127 301.189 117.578 303.763 116.512C306.337 115.445 308.676 113.882 310.646 111.911C312.616 109.94 314.178 107.601 315.245 105.026C316.311 102.451 316.859 99.691 316.859 96.9039C316.859 85.1826 301.067 86.0709 295.644 75.6805C289.436 63.7859 280.343 72.4127 274.429 96.9039Z" fill="#E6E6E6"/>
<path d="M176.391 96.0123C176.391 101.641 178.626 107.039 182.604 111.019C186.583 115 191.979 117.236 197.606 117.236C209.323 117.236 219.161 107.729 218.821 96.0123C218.108 71.4678 208.603 61.8501 197.606 74.7889C190.016 83.7188 176.391 84.2909 176.391 96.0123Z" fill="#E6E6E6"/>
<path d="M174.608 163.37C164.707 159.088 181.903 181.031 195.823 184.593C207.175 187.498 217.039 175.091 217.039 163.37C217.039 160.583 216.49 157.823 215.424 155.248C214.357 152.673 212.795 150.334 210.825 148.363C208.855 146.392 206.516 144.829 203.942 143.762C201.368 142.696 198.609 142.147 195.823 142.147C184.107 142.147 185.363 168.021 174.608 163.37Z" fill="#E6E6E6"/>
<g filter="url(#filter3_d_42_245)">
<path d="M297.727 87.2714H269.349C268.76 87.2714 268.176 87.3876 267.631 87.6134C267.086 87.8392 266.591 88.1701 266.174 88.5873C265.757 89.0045 265.426 89.4997 265.2 90.0448C264.975 90.5899 264.858 91.1741 264.858 91.7641V120.153C264.858 121.344 265.332 122.487 266.174 123.33C267.016 124.172 268.158 124.646 269.349 124.646H297.727C298.918 124.646 300.06 124.172 300.903 123.33C301.745 122.487 302.218 121.344 302.218 120.153V91.7641C302.218 90.5726 301.745 89.4298 300.903 88.5873C300.06 87.7447 298.918 87.2714 297.727 87.2714ZM292.399 96.8558H289.144C286.922 96.8558 286.49 97.9082 286.49 99.4621V102.757H291.789L291.101 107.93H286.48V121.42C284.504 121.791 282.476 121.786 280.502 121.406V107.93H276.265V102.757H280.581V98.9312C280.581 94.3576 283.757 91.8595 287.846 91.8595C289.813 91.8595 291.917 92.0071 292.399 92.0758V96.8558Z" fill="#6ED7AB"/>
</g>
<g filter="url(#filter4_d_42_245)">
<path d="M226.744 87.2714H198.366C197.175 87.2714 196.033 87.7448 195.19 88.5873C194.348 89.4298 193.875 90.5726 193.875 91.7641V120.153C193.875 121.344 194.348 122.487 195.19 123.33C196.033 124.172 197.175 124.646 198.366 124.646H226.744C227.935 124.646 229.077 124.172 229.919 123.33C230.761 122.487 231.235 121.344 231.235 120.153V91.7641C231.235 90.5726 230.761 89.4298 229.919 88.5873C229.077 87.7447 227.935 87.2714 226.744 87.2714ZM212.555 115.925C210.584 115.925 208.658 115.34 207.02 114.245C205.382 113.15 204.105 111.594 203.351 109.772C202.597 107.951 202.399 105.947 202.784 104.014C203.168 102.081 204.117 100.305 205.51 98.9112C206.903 97.5173 208.679 96.5681 210.611 96.1835C212.544 95.799 214.547 95.9964 216.367 96.7507C218.188 97.505 219.744 98.7825 220.838 100.421C221.933 102.06 222.517 103.987 222.517 105.958C222.517 108.602 221.468 111.137 219.599 113.006C217.731 114.875 215.197 115.925 212.555 115.925H212.555ZM223.763 95.992C223.27 95.992 222.789 95.8459 222.379 95.5721C221.969 95.2984 221.65 94.9092 221.462 94.4539C221.273 93.9987 221.224 93.4977 221.32 93.0144C221.416 92.531 221.653 92.0871 222.002 91.7386C222.35 91.3901 222.794 91.1528 223.277 91.0567C223.76 90.9606 224.261 91.0099 224.716 91.1985C225.171 91.3871 225.56 91.7064 225.834 92.1162C226.107 92.5259 226.253 93.0076 226.253 93.5004C226.253 94.1612 225.991 94.795 225.524 95.2622C225.057 95.7295 224.423 95.992 223.763 95.992H223.763Z" fill="#6ED7AB"/>
</g>
<path d="M304.564 154.323C305.373 154.329 306.171 154.512 306.902 154.86C307.633 155.207 308.278 155.711 308.794 156.335C309.309 156.96 309.681 157.69 309.884 158.473C310.086 159.257 310.115 160.076 309.967 160.872L320.57 167.773L317.949 175.242L303.113 165.285C301.792 164.948 300.642 164.138 299.878 163.009C299.115 161.88 298.792 160.511 298.971 159.159C299.15 157.808 299.818 156.569 300.849 155.678C301.88 154.787 303.201 154.305 304.564 154.323Z" fill="#FFB6B6"/>
<g filter="url(#filter5_d_42_245)">
<path d="M308.34 172.472L315.908 163.731L325.686 168.268L345.668 184.176C348.287 184.482 368.165 187.048 367.799 194.351C367.79 195.205 367.597 196.046 367.232 196.817C366.867 197.589 366.34 198.272 365.686 198.821C362.549 201.411 357.112 200.676 356.908 200.646L343.9 199.995C343.22 200.159 336.158 201.782 332.42 199.46C331.287 198.755 308.34 172.472 308.34 172.472Z" fill="#1F7B55"/>
</g>
<g filter="url(#filter6_d_42_245)">
<path d="M330.164 395.724L323.966 395.723L321.018 371.808H330.165L330.164 395.724Z" fill="#FFB6B6"/>
</g>
<g filter="url(#filter7_d_42_245)">
<path d="M331.745 401.734L311.76 401.733V401.48C311.76 399.417 312.579 397.437 314.038 395.978C315.497 394.519 317.475 393.699 319.538 393.699H319.539L323.189 390.928L330 393.699L331.745 393.699L331.745 401.734Z" fill="#1C1C1C"/>
</g>
<path d="M398.193 390.871L392.218 392.522L383.011 370.254L391.828 367.818L398.193 390.871Z" fill="#FFB6B6"/>
<g filter="url(#filter8_d_42_245)">
<path d="M401.316 396.243L382.052 401.566L381.985 401.322C381.436 399.333 381.699 397.207 382.717 395.412C383.734 393.617 385.423 392.299 387.412 391.75L387.412 391.749L390.194 388.107L397.496 388.963L399.178 388.499L401.316 396.243Z" fill="#1C1C1C"/>
</g>
<g filter="url(#filter9_d_42_245)">
<path d="M330.437 250.988L377.271 253.379L377.286 253.421C380.091 261.217 380.747 269.624 379.182 277.761L380.616 289.713L387.785 327.003L397.342 374.811C397.342 374.811 409.768 378.158 393.519 383.895C377.271 389.632 380.616 386.285 383.006 381.982C385.395 377.68 371.297 329.154 371.297 329.154L354.093 290.43L337.367 330.589L335.455 375.05C335.455 375.05 340.473 381.026 326.136 383.417C311.799 385.807 312.516 381.265 315.861 377.919C319.207 374.572 322.074 330.111 322.074 330.111L325.419 288.039C325.419 288.039 324.463 263.657 330.437 250.988Z" fill="#1C1C1C"/>
</g>
<g filter="url(#filter10_d_42_245)">
<path d="M376.231 196.369L372.466 186.489L360.34 174.54L344.982 173.334L333.695 183.444L330.504 193.501C334.69 212.891 334.604 230.75 328.673 248.052C328.251 249.248 328.096 250.522 328.217 251.784C328.339 253.046 328.734 254.267 329.375 255.361C330.016 256.455 330.889 257.396 331.931 258.118C332.973 258.84 334.16 259.326 335.409 259.542C352.807 262.466 385.204 266.852 382.973 258.503C380.021 247.459 369.751 223.688 373.555 211.118C374.94 206.751 375.811 202.237 376.151 197.668L376.231 196.369Z" fill="#1F7B55"/>
</g>
<g filter="url(#filter11_d_42_245)">
<path d="M350.079 169.479C357.649 169.479 363.785 163.34 363.785 155.767C363.785 148.194 357.649 142.055 350.079 142.055C342.509 142.055 336.373 148.194 336.373 155.767C336.373 163.34 342.509 169.479 350.079 169.479Z" fill="#FFB6B6"/>
</g>
<g filter="url(#filter12_d_42_245)">
<path d="M346.339 168.758L356.786 168.225C358.125 168.157 359.586 168.039 360.56 167.117C361.084 166.548 361.487 165.878 361.744 165.149C362.71 162.904 363.676 160.66 364.617 158.405C365.919 155.286 367.198 151.993 366.866 148.629C366.788 147.093 366.144 145.64 365.058 144.551C364.504 144.026 363.792 143.7 363.032 143.623C362.273 143.546 361.51 143.723 360.862 144.126C360.701 143.062 360.3 142.048 359.69 141.162C359.08 140.276 358.277 139.54 357.34 139.01C355.45 137.965 353.291 137.508 351.139 137.695C348.016 137.896 345.035 139.072 342.615 141.056C341.934 141.684 341.208 142.26 340.441 142.78C340.055 143.038 339.621 143.214 339.164 143.299C338.708 143.383 338.239 143.374 337.787 143.271C337.339 143.151 336.949 142.873 336.69 142.488C336.43 142.103 336.319 141.637 336.377 141.177C335.641 141.727 335.136 142.532 334.962 143.434C334.787 144.336 334.954 145.272 335.432 146.057C334.889 146.284 334.297 146.367 333.713 146.298C333.129 146.229 332.573 146.01 332.099 145.663C331.591 145.915 331.141 146.271 330.778 146.707C330.415 147.143 330.147 147.65 329.992 148.196C329.836 148.742 329.796 149.314 329.874 149.876C329.953 150.439 330.148 150.978 330.446 151.461C330.745 151.943 331.141 152.358 331.61 152.678C332.078 152.999 332.608 153.218 333.166 153.321C333.724 153.425 334.297 153.411 334.849 153.28C335.401 153.149 335.92 152.905 336.372 152.562C337.006 153.45 336.77 154.658 336.687 155.746C336.604 156.835 336.896 158.188 337.945 158.489C339.364 158.895 340.512 156.985 341.987 157.005C342.351 157.035 342.702 157.154 343.009 157.352C343.316 157.55 343.569 157.82 343.747 158.139C344.094 158.781 344.332 159.476 344.451 160.196L346.339 168.699" fill="#1C1C1C"/>
</g>
<g filter="url(#filter13_d_42_245)">
<path d="M276.356 190.575C271.137 190.578 266.029 189.064 261.655 186.216L259.454 184.784L262.063 185.074C262.747 185.15 263.483 185.194 264.251 185.205C267.768 185.208 271.211 184.196 274.168 182.29C272.411 181.909 270.784 181.076 269.448 179.873C268.112 178.67 267.113 177.139 266.549 175.431L266.223 174.424L267.261 174.628C267.733 174.721 268.212 174.775 268.693 174.789C267.047 173.941 265.665 172.658 264.699 171.078C263.733 169.498 263.22 167.683 263.215 165.831V164.764L264.144 165.175C264.694 165.485 265.278 165.733 265.883 165.914C264.451 164.307 263.562 162.29 263.342 160.149C263.122 158.008 263.582 155.852 264.656 153.987L265.109 153.204L265.679 153.907C269.824 159.039 275.764 162.402 282.296 163.317C282.475 163.342 282.658 163.329 282.831 163.277C283.004 163.225 283.165 163.137 283.3 163.017C283.439 162.896 283.551 162.747 283.627 162.579C283.703 162.412 283.743 162.23 283.742 162.046C283.727 160.055 284.305 158.104 285.402 156.442C286.499 154.781 288.066 153.483 289.903 152.716C291.74 151.949 293.764 151.746 295.717 152.134C297.669 152.521 299.462 153.482 300.867 154.893C302.789 154.473 304.632 153.749 306.326 152.748L307.756 151.901L307.235 153.479C306.752 154.943 305.942 156.278 304.867 157.382C305.821 157.133 306.754 156.809 307.657 156.413L309.593 155.561L308.426 157.326C307.19 159.199 305.646 160.849 303.859 162.206V163.106C303.859 176.609 293.592 190.575 276.411 190.575L276.356 190.575Z" fill="#6ED7AB"/>
</g>
<g filter="url(#filter14_d_42_245)">
<path d="M288.664 180.961C289.472 180.927 290.278 181.072 291.025 181.384C291.772 181.696 292.441 182.168 292.986 182.767C293.53 183.366 293.937 184.077 294.177 184.85C294.417 185.623 294.485 186.439 294.376 187.241L305.299 193.624L303.041 201.21L287.742 191.98C286.407 191.707 285.219 190.954 284.402 189.863C283.585 188.772 283.197 187.419 283.31 186.061C283.424 184.703 284.032 183.433 285.018 182.493C286.005 181.553 287.302 181.008 288.664 180.961V180.961Z" fill="#FFB6B6"/>
</g>
<g filter="url(#filter15_d_42_245)">
<path d="M301.525 204.777L293.367 195.946L299.022 187.487L305.117 192.603L311.781 194.198L321.185 197.765C322.494 195.475 332.651 178.19 339.223 181.391C340.004 181.734 340.702 182.242 341.268 182.881C341.834 183.519 342.256 184.272 342.503 185.089C343.655 188.992 340.846 193.707 340.739 193.882L335.037 205.597C334.921 206.288 333.643 213.422 330.041 215.951C329.532 216.323 328.951 216.586 328.336 216.722C327.72 216.858 327.083 216.864 326.464 216.741C315.272 214.624 307.386 211.349 303.362 207.184C302.653 206.461 302.036 205.652 301.525 204.777Z" fill="#1F7B55"/>
</g>
<g filter="url(#filter16_d_42_245)">
<path d="M156.41 170.633C155.154 167.931 157.147 164.914 157.859 162.005C159.186 156.577 155.446 150.701 150.377 148.82C145.309 146.939 139.484 148.511 135.13 151.802C130.861 155.029 127.861 156.548 124.92 161.107C123.935 162.636 122.89 167.382 122.704 169.213C122.517 171.044 123.464 173.142 125.19 173.543C125.025 173.87 124.952 174.235 124.98 174.601C125.008 174.966 125.136 175.316 125.349 175.614C125.562 175.911 125.853 176.145 126.19 176.288C126.527 176.432 126.896 176.481 127.258 176.429C130.563 175.79 136.631 177.546 136.631 177.546C142.289 177.87 147.947 178.194 153.606 178.518C155.055 178.601 156.56 178.676 157.862 177.875C158.223 177.664 158.533 177.377 158.772 177.035C159.011 176.692 159.174 176.302 159.248 175.891C159.579 173.747 157.276 172.496 156.41 170.633Z" fill="#1C1C1C"/>
</g>
<g filter="url(#filter17_d_42_245)">
<path d="M160.683 194.275L159.445 202.519L157.481 215.581L157.149 220.421L154.705 255.892L147.976 261.07C144.079 264.068 139.216 265.527 134.313 265.167C129.411 264.807 124.812 262.654 121.395 259.119L113.223 255.183C117.603 250.873 116.789 230.897 116.789 230.897L116.739 191.662L127.817 187.935L131.465 180.749H144.555L147.828 188.388L153.767 191.105L156.472 192.349L160.683 194.275Z" fill="#E6E6E6"/>
</g>
<path d="M138.551 177.064C144.663 177.064 149.618 172.107 149.618 165.992C149.618 159.878 144.663 154.921 138.551 154.921C132.438 154.921 127.483 159.878 127.483 165.992C127.483 172.107 132.438 177.064 138.551 177.064Z" fill="#9E616A"/>
<g filter="url(#filter18_d_42_245)">
<path d="M132.228 162.519C129.304 162.524 126.45 161.623 124.058 159.941L123.978 159.885C123.978 158.471 124.257 157.07 124.798 155.764C125.339 154.457 126.132 153.27 127.131 152.27C128.131 151.27 129.318 150.477 130.624 149.936C131.93 149.394 133.33 149.116 134.743 149.116H139.138C140.542 149.117 141.932 149.396 143.229 149.936C144.526 150.476 145.703 151.266 146.694 152.262C147.685 153.257 148.47 154.439 149.004 155.738C149.537 157.037 149.81 158.429 149.805 159.834C149.796 160.476 149.537 161.088 149.083 161.541C148.63 161.994 148.017 162.252 147.376 162.26L132.48 162.517C132.396 162.519 132.312 162.519 132.228 162.519Z" fill="#1C1C1C"/>
</g>
<g filter="url(#filter19_d_42_245)">
<path d="M164.624 217.037L154.599 217.119L153.862 234.969L145.717 244.945C144.726 245.112 143.801 245.549 143.043 246.209C142.285 246.869 141.724 247.726 141.423 248.685C141.121 249.644 141.09 250.667 141.333 251.643C141.577 252.618 142.085 253.507 142.801 254.212C143.518 254.916 144.416 255.409 145.395 255.635C146.374 255.862 147.396 255.813 148.349 255.494C149.302 255.176 150.149 254.6 150.795 253.831C151.442 253.061 151.863 252.128 152.012 251.134L163.233 235.573L164.624 217.037Z" fill="#9E616A"/>
</g>
<g filter="url(#filter20_d_42_245)">
<path d="M111.765 217.57L101.488 212.764L90.2666 226.662L77.7838 229.821C76.8886 229.364 75.8846 229.164 74.8829 229.242C73.8811 229.321 72.9205 229.675 72.1072 230.265C71.2939 230.856 70.6596 231.659 70.2742 232.588C69.8889 233.516 69.7675 234.533 69.9236 235.526C70.0796 236.519 70.507 237.449 71.1585 238.215C71.81 238.98 72.6603 239.55 73.6154 239.862C74.5706 240.175 75.5934 240.217 76.5709 239.984C77.5484 239.751 78.4425 239.252 79.1546 238.543L97.4334 232.732L111.765 217.57Z" fill="#9E616A"/>
</g>
<g filter="url(#filter21_d_42_245)">
<path d="M144.089 176.21L147.92 171.427C148.334 171.008 148.604 170.468 148.689 169.886C148.709 169.301 148.159 168.675 147.603 168.858C147.088 169.028 144.118 161.585 143.576 161.587C143.013 161.588 142.83 160.838 142.823 160.275C142.796 158.143 144.528 160.433 145.101 158.379C145.673 156.325 147.906 158.091 149.83 157.174C151.754 156.257 154.368 156.673 155.558 158.442C156.439 159.754 156.407 161.459 156.29 163.035C156.018 166.694 155.468 170.326 154.644 173.901C154.441 174.779 154.14 175.76 153.331 176.157C152.886 176.333 152.406 176.405 151.929 176.367L146.029 176.337" fill="#1C1C1C"/>
</g>
<g filter="url(#filter22_d_42_245)">
<path d="M153.282 155.651C156.294 155.651 158.736 153.208 158.736 150.195C158.736 147.181 156.294 144.739 153.282 144.739C150.269 144.739 147.828 147.181 147.828 150.195C147.828 153.208 150.269 155.651 153.282 155.651Z" fill="#1C1C1C"/>
</g>
<g filter="url(#filter23_d_42_245)">
<path d="M165.548 216.864C164.959 217.889 163.704 218.299 162.559 218.615C161.01 219.046 160.557 219.483 159.008 219.914C158.392 220.088 157.77 220.263 157.149 220.421C156.128 220.696 155.092 220.909 154.045 221.059C153.167 221.185 152.131 221.185 151.558 220.503C151.178 219.917 151.025 219.213 151.127 218.522C151.351 210.142 151.576 201.761 151.804 193.38L152.278 193.544C152.492 193.403 152.714 193.275 152.944 193.162C154.035 192.606 155.247 192.326 156.472 192.349C157.173 192.355 157.87 192.463 158.539 192.671C159.579 193.001 160.534 193.554 161.338 194.291C162.143 195.027 162.777 195.931 163.197 196.938C163.741 198.458 164 200.065 163.961 201.679C163.966 201.925 163.966 202.17 163.972 202.416C164.004 204.511 162.941 206.606 162.974 208.701C162.949 209.291 163.03 209.881 163.213 210.442C163.432 210.998 163.857 211.462 164.021 212.04C164.184 212.613 163.917 213.399 163.323 213.443C163.743 213.398 164.167 213.47 164.548 213.652C164.93 213.833 165.253 214.116 165.484 214.471C165.714 214.825 165.842 215.236 165.853 215.658C165.865 216.08 165.759 216.498 165.548 216.864V216.864Z" fill="#E6E6E6"/>
</g>
<g filter="url(#filter24_d_42_245)">
<path d="M116.785 191.709C117.876 191.775 118.939 192.08 119.898 192.604C120.856 193.128 121.688 193.857 122.333 194.74C122.978 195.622 123.42 196.636 123.627 197.709C123.835 198.782 123.804 199.888 123.535 200.948C122.965 202.718 122.069 204.365 120.893 205.806L117.227 210.91C116.855 211.367 116.569 211.888 116.383 212.448C116.229 213.027 116.29 213.654 116.078 214.214C115.867 214.775 115.187 215.245 114.681 214.924C115.045 215.138 115.343 215.449 115.541 215.822C115.74 216.195 115.831 216.615 115.806 217.037C115.78 217.459 115.639 217.865 115.397 218.211C115.155 218.558 114.822 218.83 114.435 218.999C113.348 219.474 112.098 219.05 110.99 218.626L106.488 216.903C104.887 216.331 103.327 215.651 101.819 214.867C101.039 214.439 100.208 213.823 100.152 212.935C100.109 212.244 100.693 211.713 100.986 211.086C104.652 203.234 110.043 196.986 116.74 191.662L116.785 191.709Z" fill="#E6E6E6"/>
</g>
<g filter="url(#filter25_d_42_245)">
<path d="M122.052 238.978C122.052 234.587 118.817 231.049 114.771 231.049C109.353 230.789 103.84 230.696 98.203 230.696H96.4452C90.8184 230.696 85.2852 230.789 79.8768 231.049C75.8933 231.049 72.6586 234.597 72.6586 238.999C72.409 242.484 72.305 245.959 72.3154 249.403C72.3258 252.848 72.409 256.364 72.6482 259.808C72.6482 264.21 75.8829 267.778 79.8664 267.778C85.5452 268.038 91.3801 268.153 97.3085 268.153C103.237 268.153 109.061 268.049 114.761 267.778C118.755 267.778 122.042 264.21 122.042 259.808C122.27 256.323 122.385 252.848 122.374 249.351C122.364 245.856 122.281 242.401 122.052 238.947L122.052 238.978ZM92.5865 259.028V239.821L106.752 249.414L92.5865 259.028Z" fill="#6ED7AB"/>
</g>
</g>
<defs>
<filter id="filter0_d_42_245" x="84.2048" y="368.989" width="22.821" height="28.9524" filterUnits="userSpaceOnUse" color-interpolation-filters="sRGB">
<feFlood flood-opacity="0" result="BackgroundImageFix"/>
<feColorMatrix in="SourceAlpha" type="matrix" values="0 0 0 0 0 0 0 0 0 0 0 0 0 0 0 0 0 0 127 0" result="hardAlpha"/>
<feOffset dy="4"/>
<feGaussianBlur stdDeviation="2"/>
<feComposite in2="hardAlpha" operator="out"/>
<feColorMatrix type="matrix" values="0 0 0 0 0 0 0 0 0 0 0 0 0 0 0 0 0 0 0.25 0"/>
<feBlend mode="normal" in2="BackgroundImageFix" result="effect1_dropShadow_42_245"/>
<feBlend mode="normal" in="SourceGraphic" in2="effect1_dropShadow_42_245" result="shape"/>
</filter>
<filter id="filter1_d_42_245" x="78.2119" y="383.969" width="26.238" height="25.6968" filterUnits="userSpaceOnUse" color-interpolation-filters="sRGB">
<feFlood flood-opacity="0" result="BackgroundImageFix"/>
<feColorMatrix in="SourceAlpha" type="matrix" values="0 0 0 0 0 0 0 0 0 0 0 0 0 0 0 0 0 0 127 0" result="hardAlpha"/>
<feOffset dy="4"/>
<feGaussianBlur stdDeviation="2"/>
<feComposite in2="hardAlpha" operator="out"/>
<feColorMatrix type="matrix" values="0 0 0 0 0 0 0 0 0 0 0 0 0 0 0 0 0 0 0.25 0"/>
<feBlend mode="normal" in2="BackgroundImageFix" result="effect1_dropShadow_42_245"/>
<feBlend mode="normal" in="SourceGraphic" in2="effect1_dropShadow_42_245" result="shape"/>
</filter>
<filter id="filter2_d_42_245" x="88.2087" y="235.881" width="79.3079" height="155.212" filterUnits="userSpaceOnUse" color-interpolation-filters="sRGB">
<feFlood flood-opacity="0" result="BackgroundImageFix"/>
<feColorMatrix in="SourceAlpha" type="matrix" values="0 0 0 0 0 0 0 0 0 0 0 0 0 0 0 0 0 0 127 0" result="hardAlpha"/>
<feOffset dy="4"/>
<feGaussianBlur stdDeviation="2"/>
<feComposite in2="hardAlpha" operator="out"/>
<feColorMatrix type="matrix" values="0 0 0 0 0 0 0 0 0 0 0 0 0 0 0 0 0 0 0.25 0"/>
<feBlend mode="normal" in2="BackgroundImageFix" result="effect1_dropShadow_42_245"/>
<feBlend mode="normal" in="SourceGraphic" in2="effect1_dropShadow_42_245" result="shape"/>
</filter>
<filter id="filter3_d_42_245" x="260.858" y="87.2714" width="45.3596" height="45.3741" filterUnits="userSpaceOnUse" color-interpolation-filters="sRGB">
<feFlood flood-opacity="0" result="BackgroundImageFix"/>
<feColorMatrix in="SourceAlpha" type="matrix" values="0 0 0 0 0 0 0 0 0 0 0 0 0 0 0 0 0 0 127 0" result="hardAlpha"/>
<feOffset dy="4"/>
<feGaussianBlur stdDeviation="2"/>
<feComposite in2="hardAlpha" operator="out"/>
<feColorMatrix type="matrix" values="0 0 0 0 0 0 0 0 0 0 0 0 0 0 0 0 0 0 0.25 0"/>
<feBlend mode="normal" in2="BackgroundImageFix" result="effect1_dropShadow_42_245"/>
<feBlend mode="normal" in="SourceGraphic" in2="effect1_dropShadow_42_245" result="shape"/>
</filter>
<filter id="filter4_d_42_245" x="189.875" y="87.2714" width="45.3596" height="45.3741" filterUnits="userSpaceOnUse" color-interpolation-filters="sRGB">
<feFlood flood-opacity="0" result="BackgroundImageFix"/>
<feColorMatrix in="SourceAlpha" type="matrix" values="0 0 0 0 0 0 0 0 0 0 0 0 0 0 0 0 0 0 127 0" result="hardAlpha"/>
<feOffset dy="4"/>
<feGaussianBlur stdDeviation="2"/>
<feComposite in2="hardAlpha" operator="out"/>
<feColorMatrix type="matrix" values="0 0 0 0 0 0 0 0 0 0 0 0 0 0 0 0 0 0 0.25 0"/>
<feBlend mode="normal" in2="BackgroundImageFix" result="effect1_dropShadow_42_245"/>
<feBlend mode="normal" in="SourceGraphic" in2="effect1_dropShadow_42_245" result="shape"/>
</filter>
<filter id="filter5_d_42_245" x="304.34" y="163.731" width="67.4641" height="45.034" filterUnits="userSpaceOnUse" color-interpolation-filters="sRGB">
<feFlood flood-opacity="0" result="BackgroundImageFix"/>
<feColorMatrix in="SourceAlpha" type="matrix" values="0 0 0 0 0 0 0 0 0 0 0 0 0 0 0 0 0 0 127 0" result="hardAlpha"/>
<feOffset dy="4"/>
<feGaussianBlur stdDeviation="2"/>
<feComposite in2="hardAlpha" operator="out"/>
<feColorMatrix type="matrix" values="0 0 0 0 0 0 0 0 0 0 0 0 0 0 0 0 0 0 0.25 0"/>
<feBlend mode="normal" in2="BackgroundImageFix" result="effect1_dropShadow_42_245"/>
<feBlend mode="normal" in="SourceGraphic" in2="effect1_dropShadow_42_245" result="shape"/>
</filter>
<filter id="filter6_d_42_245" x="317.018" y="371.808" width="17.147" height="31.9164" filterUnits="userSpaceOnUse" color-interpolation-filters="sRGB">
<feFlood flood-opacity="0" result="BackgroundImageFix"/>
<feColorMatrix in="SourceAlpha" type="matrix" values="0 0 0 0 0 0 0 0 0 0 0 0 0 0 0 0 0 0 127 0" result="hardAlpha"/>
<feOffset dy="4"/>
<feGaussianBlur stdDeviation="2"/>
<feComposite in2="hardAlpha" operator="out"/>
<feColorMatrix type="matrix" values="0 0 0 0 0 0 0 0 0 0 0 0 0 0 0 0 0 0 0.25 0"/>
<feBlend mode="normal" in2="BackgroundImageFix" result="effect1_dropShadow_42_245"/>
<feBlend mode="normal" in="SourceGraphic" in2="effect1_dropShadow_42_245" result="shape"/>
</filter>
<filter id="filter7_d_42_245" x="307.76" y="390.928" width="27.9854" height="18.8058" filterUnits="userSpaceOnUse" color-interpolation-filters="sRGB">
<feFlood flood-opacity="0" result="BackgroundImageFix"/>
<feColorMatrix in="SourceAlpha" type="matrix" values="0 0 0 0 0 0 0 0 0 0 0 0 0 0 0 0 0 0 127 0" result="hardAlpha"/>
<feOffset dy="4"/>
<feGaussianBlur stdDeviation="2"/>
<feComposite in2="hardAlpha" operator="out"/>
<feColorMatrix type="matrix" values="0 0 0 0 0 0 0 0 0 0 0 0 0 0 0 0 0 0 0.25 0"/>
<feBlend mode="normal" in2="BackgroundImageFix" result="effect1_dropShadow_42_245"/>
<feBlend mode="normal" in="SourceGraphic" in2="effect1_dropShadow_42_245" result="shape"/>
</filter>
<filter id="filter8_d_42_245" x="377.704" y="388.107" width="27.6118" height="21.4595" filterUnits="userSpaceOnUse" color-interpolation-filters="sRGB">
<feFlood flood-opacity="0" result="BackgroundImageFix"/>
<feColorMatrix in="SourceAlpha" type="matrix" values="0 0 0 0 0 0 0 0 0 0 0 0 0 0 0 0 0 0 127 0" result="hardAlpha"/>
<feOffset dy="4"/>
<feGaussianBlur stdDeviation="2"/>
<feComposite in2="hardAlpha" operator="out"/>
<feColorMatrix type="matrix" values="0 0 0 0 0 0 0 0 0 0 0 0 0 0 0 0 0 0 0.25 0"/>
<feBlend mode="normal" in2="BackgroundImageFix" result="effect1_dropShadow_42_245"/>
<feBlend mode="normal" in="SourceGraphic" in2="effect1_dropShadow_42_245" result="shape"/>
</filter>
<filter id="filter9_d_42_245" x="309.847" y="250.988" width="96.0378" height="143.958" filterUnits="userSpaceOnUse" color-interpolation-filters="sRGB">
<feFlood flood-opacity="0" result="BackgroundImageFix"/>
<feColorMatrix in="SourceAlpha" type="matrix" values="0 0 0 0 0 0 0 0 0 0 0 0 0 0 0 0 0 0 127 0" result="hardAlpha"/>
<feOffset dy="4"/>
<feGaussianBlur stdDeviation="2"/>
<feComposite in2="hardAlpha" operator="out"/>
<feColorMatrix type="matrix" values="0 0 0 0 0 0 0 0 0 0 0 0 0 0 0 0 0 0 0.25 0"/>
<feBlend mode="normal" in2="BackgroundImageFix" result="effect1_dropShadow_42_245"/>
<feBlend mode="normal" in="SourceGraphic" in2="effect1_dropShadow_42_245" result="shape"/>
</filter>
<filter id="filter10_d_42_245" x="324.177" y="173.334" width="62.9053" height="98.0035" filterUnits="userSpaceOnUse" color-interpolation-filters="sRGB">
<feFlood flood-opacity="0" result="BackgroundImageFix"/>
<feColorMatrix in="SourceAlpha" type="matrix" values="0 0 0 0 0 0 0 0 0 0 0 0 0 0 0 0 0 0 127 0" result="hardAlpha"/>
<feOffset dy="4"/>
<feGaussianBlur stdDeviation="2"/>
<feComposite in2="hardAlpha" operator="out"/>
<feColorMatrix type="matrix" values="0 0 0 0 0 0 0 0 0 0 0 0 0 0 0 0 0 0 0.25 0"/>
<feBlend mode="normal" in2="BackgroundImageFix" result="effect1_dropShadow_42_245"/>
<feBlend mode="normal" in="SourceGraphic" in2="effect1_dropShadow_42_245" result="shape"/>
</filter>
<filter id="filter11_d_42_245" x="332.373" y="142.055" width="35.4128" height="35.4235" filterUnits="userSpaceOnUse" color-interpolation-filters="sRGB">
<feFlood flood-opacity="0" result="BackgroundImageFix"/>
<feColorMatrix in="SourceAlpha" type="matrix" values="0 0 0 0 0 0 0 0 0 0 0 0 0 0 0 0 0 0 127 0" result="hardAlpha"/>
<feOffset dy="4"/>
<feGaussianBlur stdDeviation="2"/>
<feComposite in2="hardAlpha" operator="out"/>
<feColorMatrix type="matrix" values="0 0 0 0 0 0 0 0 0 0 0 0 0 0 0 0 0 0 0.25 0"/>
<feBlend mode="normal" in2="BackgroundImageFix" result="effect1_dropShadow_42_245"/>
<feBlend mode="normal" in="SourceGraphic" in2="effect1_dropShadow_42_245" result="shape"/>
</filter>
<filter id="filter12_d_42_245" x="325.835" y="137.654" width="45.0835" height="39.1043" filterUnits="userSpaceOnUse" color-interpolation-filters="sRGB">
<feFlood flood-opacity="0" result="BackgroundImageFix"/>
<feColorMatrix in="SourceAlpha" type="matrix" values="0 0 0 0 0 0 0 0 0 0 0 0 0 0 0 0 0 0 127 0" result="hardAlpha"/>
<feOffset dy="4"/>
<feGaussianBlur stdDeviation="2"/>
<feComposite in2="hardAlpha" operator="out"/>
<feColorMatrix type="matrix" values="0 0 0 0 0 0 0 0 0 0 0 0 0 0 0 0 0 0 0.25 0"/>
<feBlend mode="normal" in2="BackgroundImageFix" result="effect1_dropShadow_42_245"/>
<feBlend mode="normal" in="SourceGraphic" in2="effect1_dropShadow_42_245" result="shape"/>
</filter>
<filter id="filter13_d_42_245" x="255.454" y="151.901" width="58.1394" height="46.6735" filterUnits="userSpaceOnUse" color-interpolation-filters="sRGB">
<feFlood flood-opacity="0" result="BackgroundImageFix"/>
<feColorMatrix in="SourceAlpha" type="matrix" values="0 0 0 0 0 0 0 0 0 0 0 0 0 0 0 0 0 0 127 0" result="hardAlpha"/>
<feOffset dy="4"/>
<feGaussianBlur stdDeviation="2"/>
<feComposite in2="hardAlpha" operator="out"/>
<feColorMatrix type="matrix" values="0 0 0 0 0 0 0 0 0 0 0 0 0 0 0 0 0 0 0.25 0"/>
<feBlend mode="normal" in2="BackgroundImageFix" result="effect1_dropShadow_42_245"/>
<feBlend mode="normal" in="SourceGraphic" in2="effect1_dropShadow_42_245" result="shape"/>
</filter>
<filter id="filter14_d_42_245" x="279.291" y="180.956" width="30.0081" height="28.254" filterUnits="userSpaceOnUse" color-interpolation-filters="sRGB">
<feFlood flood-opacity="0" result="BackgroundImageFix"/>
<feColorMatrix in="SourceAlpha" type="matrix" values="0 0 0 0 0 0 0 0 0 0 0 0 0 0 0 0 0 0 127 0" result="hardAlpha"/>
<feOffset dy="4"/>
<feGaussianBlur stdDeviation="2"/>
<feComposite in2="hardAlpha" operator="out"/>
<feColorMatrix type="matrix" values="0 0 0 0 0 0 0 0 0 0 0 0 0 0 0 0 0 0 0.25 0"/>
<feBlend mode="normal" in2="BackgroundImageFix" result="effect1_dropShadow_42_245"/>
<feBlend mode="normal" in="SourceGraphic" in2="effect1_dropShadow_42_245" result="shape"/>
</filter>
<filter id="filter15_d_42_245" x="289.367" y="180.997" width="57.4133" height="43.8319" filterUnits="userSpaceOnUse" color-interpolation-filters="sRGB">
<feFlood flood-opacity="0" result="BackgroundImageFix"/>
<feColorMatrix in="SourceAlpha" type="matrix" values="0 0 0 0 0 0 0 0 0 0 0 0 0 0 0 0 0 0 127 0" result="hardAlpha"/>
<feOffset dy="4"/>
<feGaussianBlur stdDeviation="2"/>
<feComposite in2="hardAlpha" operator="out"/>
<feColorMatrix type="matrix" values="0 0 0 0 0 0 0 0 0 0 0 0 0 0 0 0 0 0 0.25 0"/>
<feBlend mode="normal" in2="BackgroundImageFix" result="effect1_dropShadow_42_245"/>
<feBlend mode="normal" in="SourceGraphic" in2="effect1_dropShadow_42_245" result="shape"/>
</filter>
<filter id="filter16_d_42_245" x="118.681" y="148.012" width="44.5994" height="38.5545" filterUnits="userSpaceOnUse" color-interpolation-filters="sRGB">
<feFlood flood-opacity="0" result="BackgroundImageFix"/>
<feColorMatrix in="SourceAlpha" type="matrix" values="0 0 0 0 0 0 0 0 0 0 0 0 0 0 0 0 0 0 127 0" result="hardAlpha"/>
<feOffset dy="4"/>
<feGaussianBlur stdDeviation="2"/>
<feComposite in2="hardAlpha" operator="out"/>
<feColorMatrix type="matrix" values="0 0 0 0 0 0 0 0 0 0 0 0 0 0 0 0 0 0 0.25 0"/>
<feBlend mode="normal" in2="BackgroundImageFix" result="effect1_dropShadow_42_245"/>
<feBlend mode="normal" in="SourceGraphic" in2="effect1_dropShadow_42_245" result="shape"/>
</filter>
<filter id="filter17_d_42_245" x="109.223" y="180.749" width="55.4595" height="92.4714" filterUnits="userSpaceOnUse" color-interpolation-filters="sRGB">
<feFlood flood-opacity="0" result="BackgroundImageFix"/>
<feColorMatrix in="SourceAlpha" type="matrix" values="0 0 0 0 0 0 0 0 0 0 0 0 0 0 0 0 0 0 127 0" result="hardAlpha"/>
<feOffset dy="4"/>
<feGaussianBlur stdDeviation="2"/>
<feComposite in2="hardAlpha" operator="out"/>
<feColorMatrix type="matrix" values="0 0 0 0 0 0 0 0 0 0 0 0 0 0 0 0 0 0 0.25 0"/>
<feBlend mode="normal" in2="BackgroundImageFix" result="effect1_dropShadow_42_245"/>
<feBlend mode="normal" in="SourceGraphic" in2="effect1_dropShadow_42_245" result="shape"/>
</filter>
<filter id="filter18_d_42_245" x="119.978" y="149.116" width="33.8271" height="21.4037" filterUnits="userSpaceOnUse" color-interpolation-filters="sRGB">
<feFlood flood-opacity="0" result="BackgroundImageFix"/>
<feColorMatrix in="SourceAlpha" type="matrix" values="0 0 0 0 0 0 0 0 0 0 0 0 0 0 0 0 0 0 127 0" result="hardAlpha"/>
<feOffset dy="4"/>
<feGaussianBlur stdDeviation="2"/>
<feComposite in2="hardAlpha" operator="out"/>
<feColorMatrix type="matrix" values="0 0 0 0 0 0 0 0 0 0 0 0 0 0 0 0 0 0 0.25 0"/>
<feBlend mode="normal" in2="BackgroundImageFix" result="effect1_dropShadow_42_245"/>
<feBlend mode="normal" in="SourceGraphic" in2="effect1_dropShadow_42_245" result="shape"/>
</filter>
<filter id="filter19_d_42_245" x="137.171" y="217.037" width="31.4529" height="46.7387" filterUnits="userSpaceOnUse" color-interpolation-filters="sRGB">
<feFlood flood-opacity="0" result="BackgroundImageFix"/>
<feColorMatrix in="SourceAlpha" type="matrix" values="0 0 0 0 0 0 0 0 0 0 0 0 0 0 0 0 0 0 127 0" result="hardAlpha"/>
<feOffset dy="4"/>
<feGaussianBlur stdDeviation="2"/>
<feComposite in2="hardAlpha" operator="out"/>
<feColorMatrix type="matrix" values="0 0 0 0 0 0 0 0 0 0 0 0 0 0 0 0 0 0 0.25 0"/>
<feBlend mode="normal" in2="BackgroundImageFix" result="effect1_dropShadow_42_245"/>
<feBlend mode="normal" in="SourceGraphic" in2="effect1_dropShadow_42_245" result="shape"/>
</filter>
<filter id="filter20_d_42_245" x="65.8574" y="212.764" width="49.9072" height="35.3678" filterUnits="userSpaceOnUse" color-interpolation-filters="sRGB">
<feFlood flood-opacity="0" result="BackgroundImageFix"/>
<feColorMatrix in="SourceAlpha" type="matrix" values="0 0 0 0 0 0 0 0 0 0 0 0 0 0 0 0 0 0 127 0" result="hardAlpha"/>
<feOffset dy="4"/>
<feGaussianBlur stdDeviation="2"/>
<feComposite in2="hardAlpha" operator="out"/>
<feColorMatrix type="matrix" values="0 0 0 0 0 0 0 0 0 0 0 0 0 0 0 0 0 0 0.25 0"/>
<feBlend mode="normal" in2="BackgroundImageFix" result="effect1_dropShadow_42_245"/>
<feBlend mode="normal" in="SourceGraphic" in2="effect1_dropShadow_42_245" result="shape"/>
</filter>
<filter id="filter21_d_42_245" x="138.822" y="156.701" width="21.5278" height="27.6752" filterUnits="userSpaceOnUse" color-interpolation-filters="sRGB">
<feFlood flood-opacity="0" result="BackgroundImageFix"/>
<feColorMatrix in="SourceAlpha" type="matrix" values="0 0 0 0 0 0 0 0 0 0 0 0 0 0 0 0 0 0 127 0" result="hardAlpha"/>
<feOffset dy="4"/>
<feGaussianBlur stdDeviation="2"/>
<feComposite in2="hardAlpha" operator="out"/>
<feColorMatrix type="matrix" values="0 0 0 0 0 0 0 0 0 0 0 0 0 0 0 0 0 0 0.25 0"/>
<feBlend mode="normal" in2="BackgroundImageFix" result="effect1_dropShadow_42_245"/>
<feBlend mode="normal" in="SourceGraphic" in2="effect1_dropShadow_42_245" result="shape"/>
</filter>
<filter id="filter22_d_42_245" x="143.828" y="144.739" width="18.9082" height="18.9123" filterUnits="userSpaceOnUse" color-interpolation-filters="sRGB">
<feFlood flood-opacity="0" result="BackgroundImageFix"/>
<feColorMatrix in="SourceAlpha" type="matrix" values="0 0 0 0 0 0 0 0 0 0 0 0 0 0 0 0 0 0 127 0" result="hardAlpha"/>
<feOffset dy="4"/>
<feGaussianBlur stdDeviation="2"/>
<feComposite in2="hardAlpha" operator="out"/>
<feColorMatrix type="matrix" values="0 0 0 0 0 0 0 0 0 0 0 0 0 0 0 0 0 0 0.25 0"/>
<feBlend mode="normal" in2="BackgroundImageFix" result="effect1_dropShadow_42_245"/>
<feBlend mode="normal" in="SourceGraphic" in2="effect1_dropShadow_42_245" result="shape"/>
</filter>
<filter id="filter23_d_42_245" x="147.096" y="192.348" width="22.7578" height="36.7756" filterUnits="userSpaceOnUse" color-interpolation-filters="sRGB">
<feFlood flood-opacity="0" result="BackgroundImageFix"/>
<feColorMatrix in="SourceAlpha" type="matrix" values="0 0 0 0 0 0 0 0 0 0 0 0 0 0 0 0 0 0 127 0" result="hardAlpha"/>
<feOffset dy="4"/>
<feGaussianBlur stdDeviation="2"/>
<feComposite in2="hardAlpha" operator="out"/>
<feColorMatrix type="matrix" values="0 0 0 0 0 0 0 0 0 0 0 0 0 0 0 0 0 0 0.25 0"/>
<feBlend mode="normal" in2="BackgroundImageFix" result="effect1_dropShadow_42_245"/>
<feBlend mode="normal" in="SourceGraphic" in2="effect1_dropShadow_42_245" result="shape"/>
</filter>
<filter id="filter24_d_42_245" x="96.1499" y="191.662" width="31.6133" height="35.5471" filterUnits="userSpaceOnUse" color-interpolation-filters="sRGB">
<feFlood flood-opacity="0" result="BackgroundImageFix"/>
<feColorMatrix in="SourceAlpha" type="matrix" values="0 0 0 0 0 0 0 0 0 0 0 0 0 0 0 0 0 0 127 0" result="hardAlpha"/>
<feOffset dy="4"/>
<feGaussianBlur stdDeviation="2"/>
<feComposite in2="hardAlpha" operator="out"/>
<feColorMatrix type="matrix" values="0 0 0 0 0 0 0 0 0 0 0 0 0 0 0 0 0 0 0.25 0"/>
<feBlend mode="normal" in2="BackgroundImageFix" result="effect1_dropShadow_42_245"/>
<feBlend mode="normal" in="SourceGraphic" in2="effect1_dropShadow_42_245" result="shape"/>
</filter>
<filter id="filter25_d_42_245" x="68.3147" y="230.696" width="58.0603" height="45.4574" filterUnits="userSpaceOnUse" color-interpolation-filters="sRGB">
<feFlood flood-opacity="0" result="BackgroundImageFix"/>
<feColorMatrix in="SourceAlpha" type="matrix" values="0 0 0 0 0 0 0 0 0 0 0 0 0 0 0 0 0 0 127 0" result="hardAlpha"/>
<feOffset dy="4"/>
<feGaussianBlur stdDeviation="2"/>
<feComposite in2="hardAlpha" operator="out"/>
<feColorMatrix type="matrix" values="0 0 0 0 0 0 0 0 0 0 0 0 0 0 0 0 0 0 0.25 0"/>
<feBlend mode="normal" in2="BackgroundImageFix" result="effect1_dropShadow_42_245"/>
<feBlend mode="normal" in="SourceGraphic" in2="effect1_dropShadow_42_245" result="shape"/>
</filter>
<clipPath id="clip0_42_245">
<rect width="492" height="404" rx="41" fill="white"/>
</clipPath>
</defs>
</svg>
