<svg width="48" height="48" viewBox="0 0 48 48" fill="none" xmlns="http://www.w3.org/2000/svg">
<path d="M20.0083 28.8822L21.0061 28.9488L21.0424 28.4039L20.6036 28.0788L20.0083 28.8822ZM19.5999 35L18.6022 34.9334L18.531 36H19.5999V35ZM20.7999 34.4L21.497 35.117L21.4971 35.1169L20.7999 34.4ZM23.6826 31.5969L24.2769 30.7926L23.5941 30.2882L22.9855 30.88L23.6826 31.5969ZM29.6799 36.0278L29.0857 36.8321L29.1389 36.8714L29.1968 36.9033L29.6799 36.0278ZM31.8551 35.0031L30.8769 34.7955L30.8762 34.7989L31.8551 35.0031ZM35.7921 16.4505L34.8219 16.2085L34.8176 16.2256L34.8139 16.2429L35.7921 16.4505ZM34.1203 14.5808L34.48 15.5139L34.5072 15.5034L34.5336 15.4914L34.1203 14.5808ZM11.0023 23.495L10.6424 22.5619L10.63 22.5669L11.0023 23.495ZM10.7146 25.4006L11.0126 24.446L11.0074 24.4445L10.7146 25.4006ZM16.6472 27.2523L16.3493 28.2069L16.7902 28.3445L17.1808 28.0981L16.6472 27.2523ZM30.3818 18.5873L29.8633 17.7322L29.8557 17.7368L29.8482 17.7416L30.3818 18.5873ZM31.1369 18.839L30.473 18.091L30.4669 18.0966L31.1369 18.839ZM20.0079 28.882L19.338 28.1396L18.431 28.9581L19.4126 29.6855L20.0079 28.882ZM19.0105 28.8156L18.6022 34.9334L20.5977 35.0666L21.0061 28.9488L19.0105 28.8156ZM19.5999 36C20.0719 36 20.4666 35.8868 20.8118 35.6808C21.1167 35.4988 21.356 35.2541 21.497 35.117L20.1029 33.683C20.0105 33.7728 19.953 33.8293 19.8952 33.8801C19.8421 33.9268 19.8091 33.9501 19.7869 33.9634C19.7677 33.9748 19.7523 33.9813 19.7335 33.9864C19.7133 33.9918 19.6726 34 19.5999 34V36ZM21.4971 35.1169L24.3798 32.3138L22.9855 30.88L20.1028 33.683L21.4971 35.1169ZM23.0884 32.4012L29.0857 36.8321L30.2742 35.2235L24.2769 30.7926L23.0884 32.4012ZM29.1968 36.9033C29.8653 37.2722 30.698 37.5067 31.4894 37.1498C32.2861 36.7906 32.6686 36.001 32.8341 35.2072L30.8762 34.7989C30.7668 35.3236 30.6135 35.3508 30.6673 35.3266C30.7158 35.3047 30.5983 35.3924 30.163 35.1522L29.1968 36.9033ZM32.8334 35.2107L36.7704 16.6581L34.8139 16.2429L30.8769 34.7955L32.8334 35.2107ZM36.7624 16.6925C37.0146 15.6815 36.8825 14.6726 36.1985 14.0111C35.5005 13.336 34.5167 13.3026 33.7069 13.6703L34.5336 15.4914C34.6565 15.4356 34.7376 15.4334 34.7726 15.4373C34.8028 15.4407 34.8075 15.4481 34.8081 15.4487C34.8098 15.4504 34.8456 15.4843 34.8674 15.5976C34.8899 15.7151 34.8952 15.9144 34.8219 16.2085L36.7624 16.6925ZM33.7605 13.6478L10.6425 22.562L11.362 24.4281L34.48 15.5139L33.7605 13.6478ZM10.63 22.5669C10.1702 22.7513 9.76369 22.9774 9.44918 23.2554C9.14114 23.5276 8.84275 23.9228 8.7912 24.4386C8.7359 24.9919 8.98611 25.4472 9.31076 25.7536C9.61834 26.0439 10.0169 26.2328 10.4218 26.3568L11.0074 24.4445C10.8958 24.4103 10.8147 24.3758 10.7591 24.3466C10.7025 24.3169 10.6824 24.2981 10.6835 24.2992C10.6853 24.3009 10.7166 24.3308 10.7446 24.3957C10.7746 24.4654 10.79 24.5506 10.7813 24.6375C10.7645 24.8051 10.6796 24.837 10.7737 24.7539C10.8612 24.6766 11.0453 24.5552 11.3745 24.4232L10.63 22.5669ZM10.4167 26.3552L16.3493 28.2069L16.9452 26.2977L11.0126 24.4461L10.4167 26.3552ZM17.1808 28.0981L30.9154 19.4331L29.8482 17.7416L16.1136 26.4066L17.1808 28.0981ZM30.9003 19.4424C30.973 19.3983 31.0254 19.383 31.0438 19.3792C31.0812 19.3715 31.0051 19.3984 30.8612 19.3491C30.7835 19.3224 30.6436 19.2578 30.5184 19.109C30.3799 18.9444 30.3091 18.7337 30.3168 18.5245C30.3297 18.1773 30.5389 18.0327 30.4731 18.0911L31.8006 19.5869C31.9791 19.4285 32.297 19.0949 32.3154 18.5985C32.3259 18.3147 32.2321 18.0393 32.0487 17.8213C31.8787 17.6193 31.6721 17.5128 31.5101 17.4572C31.1974 17.35 30.8815 17.3707 30.6403 17.4204C30.3799 17.474 30.1149 17.5797 29.8633 17.7322L30.9003 19.4424ZM30.4669 18.0966L19.338 28.1396L20.6779 29.6244L31.8068 19.5814L30.4669 18.0966ZM19.4126 29.6855L19.4129 29.6857L20.6036 28.0788L20.6033 28.0785L19.4126 29.6855Z" fill="#808080"/>
</svg>
