<svg width="48" height="48" viewBox="0 0 48 48" fill="none" xmlns="http://www.w3.org/2000/svg">
<path d="M23.2812 19.5075L24.2794 19.447L24.2787 19.4375L23.2812 19.5075ZM23.3316 20.338L23.2113 21.3307L24.4024 21.475L24.3297 20.2774L23.3316 20.338ZM22.4922 20.2363L22.3656 21.2283L22.3719 21.229L22.4922 20.2363ZM14.5013 16.3043L13.7962 17.0135L13.8015 17.0187L14.5013 16.3043ZM13.3934 15.2027L14.0984 14.4936L12.9744 13.376L12.4497 14.8717L13.3934 15.2027ZM13.108 16.0162L12.1644 15.6852L12.1618 15.6926L12.1593 15.7001L13.108 16.0162ZM14.1488 21.0328L14.8762 20.3466L14.8701 20.3402L14.8639 20.3338L14.1488 21.0328ZM13.5109 21.4227L13.8544 20.4835L13.8422 20.479L13.8298 20.4749L13.5109 21.4227ZM12.7219 21.2362L13.4323 21.94L13.5019 21.8697L13.5563 21.7873L12.7219 21.2362ZM13.3262 23.5073L14.2152 23.0494L14.2124 23.044L13.3262 23.5073ZM15.6261 25.6766L15.1755 26.5693L15.1866 26.5749L15.1979 26.5803L15.6261 25.6766ZM16.4487 26.0664L16.4661 27.0663L16.8769 25.1627L16.4487 26.0664ZM15.475 26.0834V27.0834H15.4837L15.4924 27.0832L15.475 26.0834ZM14.6021 26.4562L13.6399 26.7285L13.6426 26.7382L13.6455 26.7478L14.6021 26.4562ZM17.7413 29.2357L17.4159 30.1813L17.4178 30.1819L17.7413 29.2357ZM18.7822 29.5916L19.2955 30.4498L21.1456 29.3429L19.1057 28.6454L18.7822 29.5916ZM17.8756 30.1339L18.3777 30.9989L18.389 30.9921L17.8756 30.1339ZM13.3766 31.3881L13.3551 30.3883L13.3541 30.3884L13.3766 31.3881ZM15.24 33.0151L14.9414 33.9695L14.9456 33.9708L15.24 33.0151ZM26.2526 31.761L26.7606 32.6223L26.7612 32.6219L26.2526 31.761ZM31.8428 25.1851L30.9195 24.8012L30.9178 24.8053L31.8428 25.1851ZM33.9748 18.2873L33.2753 17.5727L33.2707 17.5772L33.9748 18.2873ZM35.15 16.9823L36.0096 17.4932L36.0238 17.4692L36.0367 17.4445L35.15 16.9823ZM34.4449 16.9484L34.1259 16.0006L34.1176 16.0034L34.1092 16.0064L34.4449 16.9484ZM33.5216 16.6264L32.8 15.934L32.7936 15.9407L32.7873 15.9475L33.5216 16.6264ZM34.1259 14.9993L33.6546 14.1174L33.6456 14.1222L33.6368 14.1272L34.1259 14.9993ZM32.6486 15.5756L32.3587 14.6184L32.3457 14.6226L32.6486 15.5756ZM31.7421 15.8637L31.1798 16.6907L31.5818 16.9639L32.045 16.8167L31.7421 15.8637ZM30.9195 15.3044L31.4818 14.4774L31.4779 14.4748L30.9195 15.3044ZM29.4926 14.5587L29.7824 13.6016L29.7711 13.5982L29.7596 13.595L29.4926 14.5587ZM26.5548 14.6265L26.2234 13.6829L26.2132 13.6866L26.5548 14.6265ZM22.283 19.5681L22.3334 20.3985L24.3297 20.2774L24.2794 19.447L22.283 19.5681ZM23.4518 19.3452L22.6125 19.2435L22.3719 21.229L23.2113 21.3307L23.4518 19.3452ZM22.6187 19.2443C19.7892 18.8833 17.3188 17.6645 15.2011 15.59L13.8015 17.0187C16.2166 19.3846 19.0845 20.8096 22.3656 21.2283L22.6187 19.2443ZM15.2064 15.5952L14.0984 14.4936L12.6883 15.9119L13.7963 17.0135L15.2064 15.5952ZM12.4497 14.8717L12.1644 15.6852L14.0516 16.3473L14.337 15.5338L12.4497 14.8717ZM12.1593 15.7001C11.4481 17.834 11.888 20.1505 13.4337 21.7319L14.8639 20.3338C13.8915 19.3391 13.5591 17.8253 14.0567 16.3324L12.1593 15.7001ZM13.4214 21.7191C13.496 21.7981 13.5512 21.8604 13.5906 21.9081C13.6326 21.959 13.6434 21.9775 13.6391 21.9703C13.6364 21.9658 13.6227 21.9428 13.6069 21.9044C13.5922 21.8688 13.5645 21.793 13.5532 21.6875C13.5415 21.5788 13.5448 21.4119 13.6239 21.2284C13.7071 21.0351 13.844 20.894 13.9873 20.8048C14.1185 20.723 14.2378 20.6946 14.3033 20.6837C14.3713 20.6723 14.4208 20.6733 14.4401 20.6741C14.4757 20.6755 14.4761 20.6796 14.4212 20.6668C14.3153 20.6421 14.1346 20.586 13.8544 20.4835L13.1674 22.3618C13.4663 22.4711 13.7388 22.5612 13.9661 22.6144C14.0778 22.6405 14.2147 22.6664 14.3575 22.6723C14.4644 22.6768 14.7568 22.6817 15.0448 22.5024C15.2127 22.3978 15.3671 22.2369 15.4608 22.0193C15.5503 21.8115 15.557 21.6159 15.5417 21.4739C15.5145 21.2201 15.4052 21.0259 15.3515 20.937C15.2297 20.7352 15.0484 20.5292 14.8762 20.3466L13.4214 21.7191ZM13.8298 20.4749C13.6231 20.4053 13.4043 20.3358 13.2226 20.2899C13.1376 20.2685 13.0217 20.242 12.9043 20.23C12.8506 20.2245 12.7433 20.216 12.6166 20.2329C12.5519 20.2415 12.1468 20.2923 11.8874 20.6852L13.5563 21.7873C13.4236 21.9883 13.2514 22.0918 13.1387 22.142C13.0274 22.1915 12.9323 22.2085 12.8812 22.2153C12.7818 22.2286 12.7106 22.2206 12.701 22.2197C12.6717 22.2167 12.6754 22.2146 12.7332 22.2291C12.8368 22.2553 12.9957 22.3044 13.1919 22.3704L13.8298 20.4749ZM12.0114 20.5325C11.7892 20.7568 11.7374 21.0145 11.7235 21.0872C11.703 21.1945 11.7006 21.2895 11.701 21.35C11.7019 21.4751 11.7173 21.6021 11.7334 21.7071C11.767 21.9257 11.8256 22.1859 11.8935 22.4428C12.0245 22.9388 12.2275 23.5641 12.44 23.9706L14.2124 23.044C14.1059 22.8403 13.948 22.3894 13.8272 21.9321C13.7692 21.7123 13.7292 21.5266 13.7103 21.4035C13.7002 21.3378 13.7009 21.32 13.701 21.3357C13.701 21.3415 13.7017 21.3905 13.6881 21.462C13.6811 21.4987 13.6398 21.7305 13.4323 21.94L12.0114 20.5325ZM12.4372 23.9652C12.9866 25.0319 14.0481 26.0002 15.1755 26.5693L16.0767 24.7839C15.2568 24.37 14.5387 23.6775 14.2152 23.0494L12.4372 23.9652ZM15.1979 26.5803L16.0205 26.9701L16.8769 25.1627L16.0543 24.7729L15.1979 26.5803ZM16.4313 25.0666L15.4576 25.0835L15.4924 27.0832L16.4661 27.0663L16.4313 25.0666ZM15.475 25.0834C15.2456 25.0834 15.0397 25.0842 14.8745 25.093C14.7433 25.1 14.4909 25.1155 14.2532 25.2177C14.1116 25.2785 13.9287 25.3889 13.7819 25.5876C13.6311 25.7916 13.5783 26.0075 13.5663 26.1769C13.5478 26.4371 13.6273 26.684 13.6399 26.7285L15.5643 26.1839C15.5522 26.1413 15.5513 26.135 15.5528 26.1424C15.5535 26.146 15.5685 26.2161 15.5612 26.3188C15.5529 26.4365 15.514 26.6088 15.3904 26.7761C15.2707 26.9381 15.1282 27.0185 15.0433 27.055C15.0012 27.0731 14.9677 27.0829 14.9482 27.088C14.9283 27.0932 14.9161 27.0951 14.9145 27.0954C14.9135 27.0955 14.9317 27.0928 14.9812 27.0901C15.0835 27.0847 15.2344 27.0834 15.475 27.0834V25.0834ZM13.6455 26.7478C13.8853 27.5346 14.4397 28.2503 15.0812 28.8175C15.7338 29.3947 16.5483 29.8827 17.4159 30.1813L18.0668 28.2901C17.4571 28.0803 16.8698 27.7294 16.4061 27.3193C15.9311 26.8993 15.6546 26.4795 15.5586 26.1647L13.6455 26.7478ZM17.4178 30.1819L18.4586 30.5378L19.1057 28.6454L18.0649 28.2895L17.4178 30.1819ZM18.2688 28.7335L17.3622 29.2758L18.389 30.9921L19.2955 30.4498L18.2688 28.7335ZM17.3736 29.2691C16.1789 29.9626 14.7665 30.358 13.3551 30.3883L13.3981 32.3879C15.1427 32.3504 16.8864 31.8645 18.3777 30.9988L17.3736 29.2691ZM13.3541 30.3884C12.9558 30.3973 12.5847 30.4197 12.3037 30.4483C12.1673 30.4622 12.0306 30.4797 11.9159 30.5022C11.8654 30.5121 11.7774 30.5309 11.6846 30.5648C11.6447 30.5794 11.5445 30.6176 11.436 30.6931C11.3823 30.7305 11 30.995 11 31.5237H13C13 31.79 12.8956 31.9921 12.8057 32.1136C12.7203 32.2292 12.629 32.2996 12.5783 32.3348C12.4793 32.4037 12.3932 32.4352 12.3717 32.4431C12.3159 32.4635 12.2822 32.4685 12.3018 32.4646C12.3272 32.4597 12.393 32.4496 12.5063 32.438C12.7247 32.4158 13.042 32.3959 13.399 32.3879L13.3541 30.3884ZM11 31.5237C11 31.7719 11.0895 31.9545 11.1398 32.0417C11.1949 32.1371 11.2547 32.2065 11.2929 32.2473C11.3691 32.3288 11.4477 32.3899 11.4979 32.4267C11.6046 32.5052 11.7301 32.5808 11.8479 32.6471C12.0914 32.7843 12.4116 32.9431 12.754 33.1011C13.4364 33.4161 14.2892 33.7655 14.9414 33.9695L15.5385 32.0607C14.9988 31.8919 14.2316 31.5803 13.5921 31.2852C13.2735 31.1381 13.0071 31.0046 12.8294 30.9045C12.7861 30.8801 12.7515 30.8597 12.725 30.8431C12.7119 30.835 12.7017 30.8284 12.6942 30.8234C12.6905 30.8209 12.6877 30.819 12.6857 30.8176C12.6837 30.8162 12.6828 30.8156 12.6828 30.8156C12.6828 30.8156 12.6831 30.8158 12.6837 30.8162C12.6843 30.8167 12.6852 30.8174 12.6864 30.8183C12.6888 30.8202 12.6928 30.8234 12.6981 30.8278C12.7072 30.8355 12.7278 30.8536 12.7537 30.8812C12.7766 30.9057 12.8248 30.9601 12.872 31.042C12.9145 31.1156 13 31.2861 13 31.5237H11ZM14.9456 33.9708C18.7842 35.1534 23.3234 34.6496 26.7606 32.6223L25.7446 30.8996C22.8025 32.6348 18.8472 33.0801 15.5344 32.0594L14.9456 33.9708ZM26.7612 32.6219C29.2253 31.1662 31.6322 28.3312 32.7679 25.5649L30.9178 24.8053C29.9382 27.1912 27.8125 29.6779 25.7439 30.9L26.7612 32.6219ZM32.7662 25.569C33.0816 24.8105 33.382 23.7799 33.6031 22.7994C33.8216 21.8305 33.9844 20.8156 33.9844 20.1007H31.9844C31.9844 20.5891 31.8617 21.4301 31.6521 22.3594C31.4452 23.277 31.1749 24.1869 30.9195 24.8012L32.7662 25.569ZM33.9844 20.1007C33.9844 19.9025 33.9888 19.8167 33.9966 19.7632C34.0008 19.7339 34.0028 19.734 34.0057 19.7287C34.0174 19.7072 34.054 19.6491 34.1682 19.5216C34.2827 19.3938 34.4421 19.2322 34.6789 18.9974L33.2707 17.5772C32.8392 18.0051 32.4644 18.3763 32.2484 18.7737C31.9842 19.26 31.9844 19.7177 31.9844 20.1007H33.9844ZM34.6744 19.0018C34.9682 18.7142 35.2522 18.4141 35.4782 18.1611C35.6757 17.94 35.9007 17.6764 36.0096 17.4932L34.2903 16.4714C34.3067 16.4438 34.2979 16.4622 34.2264 16.5499C34.167 16.6228 34.0856 16.7179 33.9866 16.8288C33.7886 17.0504 33.5354 17.318 33.2753 17.5727L34.6744 19.0018ZM36.0367 17.4445C36.0567 17.4061 36.0857 17.3504 36.1113 17.2949C36.132 17.2498 36.1809 17.1418 36.2092 17.0082C36.2315 16.9031 36.2987 16.5244 36.0321 16.1617C35.7555 15.7856 35.3576 15.7437 35.2283 15.7376C35.0769 15.7305 34.947 15.7554 34.882 15.7691C34.8039 15.7856 34.7255 15.8073 34.6549 15.8283C34.5147 15.87 34.3342 15.9305 34.1259 16.0006L34.7638 17.8961C34.9837 17.8222 35.1263 17.7747 35.2249 17.7454C35.2477 17.7386 35.2649 17.7337 35.2776 17.7304C35.2906 17.7269 35.2958 17.7259 35.295 17.726C35.2949 17.726 35.2821 17.7288 35.2601 17.7314C35.24 17.7338 35.1951 17.7383 35.1345 17.7354C35.0504 17.7315 34.6816 17.7012 34.4207 17.3464C34.1697 17.005 34.2392 16.6573 34.2528 16.593C34.2642 16.5395 34.2778 16.5012 34.2838 16.485C34.2873 16.4755 34.2902 16.4685 34.2919 16.4645C34.2936 16.4605 34.2947 16.4582 34.2947 16.4582C34.2947 16.4581 34.2941 16.4595 34.2926 16.4625C34.2912 16.4655 34.2891 16.4697 34.2863 16.4752C34.2805 16.4867 34.2732 16.5008 34.2632 16.52L36.0367 17.4445ZM34.1092 16.0064C33.7588 16.1313 33.5142 16.2095 33.3522 16.2509C33.3137 16.2607 33.2843 16.2673 33.2627 16.2715C33.2405 16.2759 33.2313 16.2769 33.2326 16.2768C33.2336 16.2767 33.2391 16.2761 33.2485 16.2757C33.2577 16.2753 33.2731 16.275 33.2934 16.2759C33.3284 16.2774 33.4091 16.2838 33.5112 16.3192C33.6169 16.3558 33.7735 16.4339 33.9087 16.5946C34.0507 16.7635 34.1121 16.956 34.1247 17.1215C34.1362 17.2721 34.1072 17.3864 34.0895 17.4425C34.0707 17.5018 34.0506 17.5397 34.0445 17.5509C34.0369 17.5647 34.078 17.4975 34.2559 17.3052L32.7873 15.9475C32.6126 16.1365 32.4145 16.3638 32.291 16.5889C32.2406 16.6808 32.105 16.9391 32.1305 17.2734C32.1456 17.4712 32.2174 17.6909 32.3782 17.882C32.532 18.0649 32.7154 18.1601 32.8563 18.2089C33.1059 18.2954 33.3387 18.2769 33.447 18.2653C33.5825 18.2506 33.7201 18.2211 33.8468 18.1887C34.1019 18.1236 34.4175 18.0197 34.7805 17.8904L34.1092 16.0064ZM34.2431 17.3187C34.562 16.9865 34.8876 16.5476 35.1335 16.1575C35.2576 15.9606 35.3738 15.7566 35.4629 15.567C35.5073 15.4726 35.5516 15.3678 35.5867 15.2598C35.6169 15.1665 35.6631 15.0033 35.6631 14.8129H33.6631C33.6631 14.7456 33.6717 14.6974 33.6758 14.6769C33.6782 14.6649 33.6804 14.6561 33.6818 14.651C33.6832 14.6458 33.6841 14.643 33.6842 14.6429C33.6843 14.6426 33.6837 14.6443 33.6824 14.6479C33.6811 14.6515 33.6791 14.6565 33.6765 14.6631C33.671 14.6764 33.6633 14.694 33.653 14.7161C33.6094 14.8088 33.5377 14.9385 33.4415 15.0911C33.2467 15.4002 33.0016 15.7239 32.8 15.934L34.2431 17.3187ZM35.6631 14.8129C35.6631 14.5848 35.5849 14.3384 35.4048 14.1374C35.242 13.9559 35.0553 13.8774 34.9412 13.8429C34.7342 13.7803 34.5577 13.7997 34.5068 13.8055C34.3685 13.8212 34.2456 13.8604 34.1765 13.8842C34.0147 13.9398 33.8306 14.0233 33.6546 14.1174L34.5973 15.8813C34.7066 15.8228 34.7911 15.7878 34.8266 15.7756C34.8561 15.7654 34.814 15.7835 34.7318 15.7928C34.709 15.7954 34.5545 15.8154 34.3623 15.7573C34.2557 15.725 34.0746 15.6498 33.9156 15.4725C33.7393 15.2758 33.6631 15.0347 33.6631 14.8129H35.6631ZM33.6368 14.1272C33.4312 14.2425 32.8432 14.4718 32.3588 14.6185L32.9385 16.5326C33.4613 16.3743 34.2163 16.0952 34.6151 15.8715L33.6368 14.1272ZM32.3457 14.6226L31.4392 14.9107L32.045 16.8167L32.9515 16.5286L32.3457 14.6226ZM32.3044 15.0367L31.4818 14.4774L30.3573 16.1314L31.1798 16.6907L32.3044 15.0367ZM31.4779 14.4748C30.9933 14.1486 30.2587 13.7459 29.7824 13.6016L29.2027 15.5158C29.398 15.5749 29.9392 15.85 30.3612 16.134L31.4779 14.4748ZM29.7596 13.595C29.2106 13.4428 28.5658 13.3879 27.9683 13.4022C27.3743 13.4164 26.7413 13.5011 26.2234 13.683L26.8861 15.57C27.1404 15.4807 27.5483 15.4128 28.0161 15.4016C28.4804 15.3905 28.9184 15.4373 29.2255 15.5224L29.7596 13.595ZM26.2132 13.6866C23.7198 14.5929 22.0995 16.9543 22.2837 19.5775L24.2787 19.4375C24.1607 17.7559 25.1929 16.1854 26.8963 15.5663L26.2132 13.6866Z" fill="#808080"/>
</svg>
