<svg width="48" height="48" viewBox="0 0 48 48" fill="none" xmlns="http://www.w3.org/2000/svg">
<path d="M25.2554 31.8761V32.8761H25.3098L25.3638 32.8702L25.2554 31.8761ZM25.9541 31.5762L26.6796 32.2643L26.68 32.264L25.9541 31.5762ZM26.1632 30.9162L25.1633 30.9305L25.1633 30.9336L26.1632 30.9162ZM27.0872 28.6043L26.7898 27.6496L26.7893 27.6497L27.0872 28.6043ZM30.5117 31.4139L31.0706 30.5847L31.0702 30.5844L30.5117 31.4139ZM32.2121 31.9228L32.1984 30.9229L32.109 30.9241L32.0213 30.9411L32.2121 31.9228ZM35.6315 31.8761L35.6452 32.876L35.6686 32.8756L35.6919 32.8742L35.6315 31.8761ZM36.5719 30.3877L37.424 29.8643L37.4217 29.8607L36.5719 30.3877ZM34.0301 27.5006L34.7037 26.7615L34.7034 26.7612L34.0301 27.5006ZM34.7551 22.4849L33.9606 21.8776L33.9605 21.8777L34.7551 22.4849ZM36.7597 18.6342L35.8197 18.9756L35.8206 18.9779L36.7597 18.6342ZM35.4162 18.2569L35.4222 19.2569L35.478 19.2566L35.5333 19.25L35.4162 18.2569ZM31.5672 18.2803L31.4349 19.2715L31.5038 19.2807L31.5733 19.2802L31.5672 18.2803ZM31.0702 18.3663L30.5642 17.5038L30.5627 17.5046L31.0702 18.3663ZM30.7296 18.7719L29.8252 18.3451L29.809 18.3794L29.7955 18.4148L30.7296 18.7719ZM29.3085 21.7179L30.1659 22.2325L30.166 22.2324L29.3085 21.7179ZM26.629 24.5484L26.0929 25.3926L26.0953 25.3941L26.629 24.5484ZM25.3067 17.7788L25.0752 18.7516L25.0763 18.7519L25.3067 17.7788ZM23.51 17.6031L23.5203 16.6031L23.5198 16.6031L23.51 17.6031ZM20.3159 17.9238L20.7483 18.8255L20.7483 18.8255L20.3159 17.9238ZM19.7462 18.6305L19.6164 19.6221L19.6167 19.6221L19.7462 18.6305ZM20.8818 19.191L21.6826 18.592L21.6823 18.5916L20.8818 19.191ZM21.2625 20.9006L20.2625 20.889L20.2621 20.9295L20.2649 20.97L21.2625 20.9006ZM20.7328 24.5644L20.2613 23.6826L20.2605 23.683L20.7328 24.5644ZM17.9745 21.6835L17.113 22.1914L17.1131 22.1915L17.9745 21.6835ZM16.6009 18.8886L17.5286 18.5151L17.5243 18.5048L16.6009 18.8886ZM16.2829 18.4671L16.8686 17.6566L16.8685 17.6565L16.2829 18.4671ZM15.6919 18.2336L15.8505 17.2462L15.7685 17.233L15.6855 17.2336L15.6919 18.2336ZM12.0345 18.2569L12.0281 17.2569L12.0179 17.257L12.0077 17.2573L12.0345 18.2569ZM11.2833 18.5064L12.0407 19.1593L12.0419 19.1579L11.2833 18.5064ZM11.2695 19.1455L10.3357 19.5033L10.3437 19.5242L10.3526 19.5447L11.2695 19.1455ZM17.376 29.0369L16.6612 29.7363L16.6613 29.7364L17.376 29.0369ZM23.7254 31.8761V30.8761H23.6959L23.6665 30.8778L23.7254 31.8761ZM25.2554 31.8761C25.3638 32.8702 25.3641 32.8701 25.3643 32.8701C25.3644 32.8701 25.3646 32.8701 25.3648 32.8701C25.3651 32.87 25.3654 32.87 25.3658 32.8699C25.3665 32.8699 25.3672 32.8698 25.3679 32.8697C25.3694 32.8695 25.371 32.8694 25.3728 32.8692C25.3762 32.8687 25.3802 32.8683 25.3846 32.8677C25.3935 32.8666 25.4042 32.8652 25.4167 32.8634C25.4416 32.8599 25.4738 32.8548 25.5117 32.8479C25.5864 32.8342 25.6889 32.812 25.8049 32.777C26.0067 32.7161 26.3818 32.5783 26.6796 32.2643L25.2285 30.888C25.2897 30.8235 25.3155 30.8356 25.2271 30.8623C25.198 30.8711 25.1703 30.8771 25.1509 30.8807C25.1418 30.8824 25.136 30.8832 25.1347 30.8834C25.1341 30.8835 25.1347 30.8834 25.1367 30.8831C25.1377 30.883 25.139 30.8829 25.1407 30.8827C25.1416 30.8826 25.1425 30.8824 25.1436 30.8823C25.1441 30.8823 25.1446 30.8822 25.1452 30.8821C25.1455 30.8821 25.1458 30.8821 25.1461 30.8821C25.1462 30.882 25.1465 30.882 25.1465 30.882C25.1468 30.882 25.147 30.882 25.2554 31.8761ZM26.68 32.264C26.9884 31.9385 27.0863 31.5419 27.1232 31.3421C27.1449 31.2249 27.1546 31.1222 27.1591 31.0479C27.1614 31.0101 27.1625 30.978 27.1629 30.9529C27.1631 30.9404 27.1632 30.9295 27.1632 30.9204C27.1632 30.9159 27.1632 30.9118 27.1632 30.9082C27.1631 30.9064 27.1631 30.9047 27.1631 30.9031C27.1631 30.9023 27.1631 30.9016 27.1631 30.9008C27.1631 30.9005 27.1631 30.9001 27.163 30.8998C27.163 30.8996 27.163 30.8993 27.163 30.8993C27.163 30.899 27.163 30.8988 26.1632 30.9162C25.1633 30.9336 25.1633 30.9333 25.1633 30.9331C25.1633 30.933 25.1633 30.9328 25.1633 30.9326C25.1633 30.9323 25.1633 30.932 25.1633 30.9316C25.1633 30.931 25.1633 30.9304 25.1633 30.9298C25.1633 30.9287 25.1633 30.9276 25.1632 30.9266C25.1632 30.9247 25.1632 30.923 25.1632 30.9217C25.1632 30.9191 25.1632 30.9177 25.1632 30.9174C25.1633 30.9168 25.1632 30.9201 25.1628 30.9264C25.162 30.9401 25.1601 30.9595 25.1565 30.9788C25.143 31.0519 25.1364 30.9852 25.2282 30.8884L26.68 32.264ZM26.1632 30.9162C27.1631 30.9019 27.1631 30.9021 27.1631 30.9023C27.1631 30.9024 27.1631 30.9026 27.1631 30.9027C27.1631 30.903 27.1631 30.9032 27.1631 30.9034C27.1631 30.9038 27.1631 30.904 27.1631 30.9042C27.1631 30.9045 27.1631 30.9043 27.1631 30.9037C27.1631 30.9025 27.1631 30.8996 27.1631 30.8949C27.1631 30.8857 27.1632 30.8698 27.1636 30.8483C27.1645 30.8051 27.1665 30.7399 27.1716 30.6596C27.1819 30.4959 27.2037 30.2845 27.2471 30.0744C27.2924 29.8558 27.351 29.6893 27.41 29.5857C27.4683 29.4831 27.4737 29.5313 27.3852 29.5589L26.7893 27.6497C26.2243 27.8261 25.876 28.2376 25.6718 28.5964C25.4682 28.9541 25.3553 29.3469 25.2886 29.6691C25.2202 29.9999 25.1896 30.3106 25.1756 30.5339C25.1684 30.6471 25.1653 30.7416 25.164 30.8097C25.1633 30.8439 25.1631 30.8716 25.1631 30.892C25.1631 30.9022 25.1631 30.9106 25.1632 30.917C25.1632 30.9202 25.1632 30.923 25.1632 30.9252C25.1632 30.9264 25.1632 30.9274 25.1633 30.9282C25.1633 30.9287 25.1633 30.9291 25.1633 30.9294C25.1633 30.9296 25.1633 30.9299 25.1633 30.93C25.1633 30.9302 25.1633 30.9305 26.1632 30.9162ZM27.3846 29.5591C27.1763 29.624 27.0926 29.4994 27.2717 29.6226C27.4351 29.735 27.6481 29.9396 27.9347 30.2521C28.1759 30.5152 28.5424 30.9391 28.8409 31.256C29.1629 31.5978 29.5392 31.9647 29.9532 32.2434L31.0702 30.5844C30.8444 30.4324 30.5901 30.1961 30.2968 29.8847C29.98 29.5483 29.7464 29.2687 29.4088 28.9005C29.1166 28.5818 28.7721 28.2272 28.4053 27.9749C28.0542 27.7334 27.4677 27.4384 26.7898 27.6496L27.3846 29.5591ZM29.9529 32.2432C30.5662 32.6565 31.1329 32.8349 31.5756 32.9015C31.7948 32.9345 31.9796 32.9395 32.1203 32.9341C32.1906 32.9315 32.2501 32.9262 32.2974 32.9205C32.3211 32.9177 32.3419 32.9148 32.3594 32.912C32.3682 32.9106 32.3763 32.9092 32.3835 32.908C32.3871 32.9073 32.3905 32.9067 32.3938 32.9061C32.3954 32.9058 32.3969 32.9055 32.3984 32.9052C32.3992 32.9051 32.3999 32.905 32.4007 32.9048C32.401 32.9047 32.4016 32.9046 32.4017 32.9046C32.4023 32.9045 32.4028 32.9044 32.2121 31.9228C32.0213 30.9411 32.0219 30.941 32.0224 30.9409C32.0225 30.9409 32.0231 30.9408 32.0234 30.9407C32.0241 30.9406 32.0248 30.9405 32.0254 30.9403C32.0268 30.9401 32.0281 30.9398 32.0293 30.9396C32.0318 30.9391 32.0342 30.9387 32.0364 30.9383C32.0408 30.9376 32.0445 30.9369 32.0477 30.9364C32.0541 30.9354 32.0581 30.9349 32.0599 30.9347C32.0633 30.9343 32.0579 30.9351 32.0443 30.9356C32.0173 30.9366 31.9582 30.9365 31.8732 30.9238C31.7073 30.8988 31.4239 30.8228 31.0706 30.5847L29.9529 32.2432ZM32.2257 32.9227L35.6452 32.876L35.6179 30.8761L32.1984 30.9229L32.2257 32.9227ZM35.6315 31.8761C35.6919 32.8742 35.6923 32.8742 35.6927 32.8742C35.6929 32.8742 35.6933 32.8741 35.6936 32.8741C35.6941 32.8741 35.6947 32.8741 35.6954 32.874C35.6967 32.8739 35.698 32.8738 35.6996 32.8737C35.7026 32.8735 35.706 32.8733 35.7099 32.873C35.7178 32.8724 35.7274 32.8717 35.7387 32.8707C35.7612 32.8687 35.7906 32.8658 35.8255 32.8616C35.895 32.8533 35.9895 32.8396 36.0988 32.8171C36.3044 32.7749 36.6208 32.6903 36.9246 32.5125C37.232 32.3327 37.6218 31.9974 37.7556 31.4332C37.8878 30.8755 37.7124 30.3339 37.424 29.8643L35.7197 30.911C35.8552 31.1315 35.7742 31.121 35.8095 30.9718C35.8464 30.8161 35.9482 30.7667 35.9145 30.7864C35.8773 30.8081 35.7997 30.8368 35.6965 30.858C35.6514 30.8673 35.6129 30.8728 35.5879 30.8758C35.5756 30.8773 35.5674 30.878 35.5641 30.8783C35.5625 30.8785 35.5622 30.8785 35.5633 30.8784C35.5639 30.8784 35.5648 30.8783 35.5661 30.8782C35.5668 30.8782 35.5675 30.8781 35.5683 30.8781C35.5688 30.878 35.5692 30.878 35.5697 30.878C35.5699 30.878 35.5703 30.8779 35.5704 30.8779C35.5708 30.8779 35.5712 30.8779 35.6315 31.8761ZM37.4217 29.8607C37.4259 29.8674 37.4394 29.8902 37.3961 29.8139C37.3683 29.7649 37.3304 29.7 37.2802 29.62C37.1799 29.46 37.0365 29.2494 36.8303 28.9856C36.419 28.4593 35.7609 27.725 34.7037 26.7615L33.3565 28.2397C34.3465 29.1419 34.9243 29.7946 35.2545 30.2172C35.5809 30.6349 35.6557 30.8077 35.722 30.9147L37.4217 29.8607ZM34.7034 26.7612C34.1342 26.2429 33.8309 25.9653 33.6614 25.7498C33.5881 25.6566 33.5845 25.6282 33.5909 25.6486C33.5948 25.6611 33.5987 25.6801 33.5996 25.7023C33.6 25.7126 33.5996 25.7213 33.599 25.728C33.5984 25.7346 33.5976 25.7381 33.5976 25.7381C33.6085 25.6876 33.6813 25.5128 34.0513 25.0188C34.4214 24.5248 34.8593 23.9954 35.5496 23.092L33.9605 21.8777C33.3599 22.6637 32.7937 23.3618 32.4506 23.8198C32.1075 24.2778 31.7583 24.7797 31.6425 25.3167C31.4951 26.0009 31.7449 26.5483 32.0895 26.9864C32.3886 27.3666 32.8536 27.7818 33.3568 28.24L34.7034 26.7612ZM35.5496 23.0921C36.3498 22.0452 36.9409 21.1628 37.3096 20.4477C37.4935 20.091 37.6397 19.7427 37.7212 19.4136C37.7988 19.1003 37.8461 18.6932 37.6988 18.2905L35.8206 18.9779C35.7715 18.8438 35.814 18.7951 35.7799 18.9327C35.7497 19.0544 35.6773 19.2495 35.532 19.5311C35.2425 20.0927 34.733 20.8671 33.9606 21.8776L35.5496 23.0921ZM37.6996 18.2929C37.5256 17.8136 37.1488 17.5646 36.8749 17.4437C36.6019 17.3232 36.3207 17.2775 36.1139 17.2575C35.8969 17.2366 35.6973 17.2385 35.5571 17.2445C35.4855 17.2476 35.4253 17.2519 35.3813 17.2557C35.3593 17.2575 35.341 17.2593 35.3272 17.2607C35.3203 17.2614 35.3144 17.2621 35.3097 17.2626C35.3074 17.2628 35.3053 17.2631 35.3035 17.2633C35.3026 17.2634 35.3018 17.2635 35.3011 17.2636C35.3007 17.2636 35.3003 17.2636 35.3 17.2637C35.2998 17.2637 35.2996 17.2637 35.2995 17.2637C35.2993 17.2638 35.2991 17.2638 35.4162 18.2569C35.5333 19.25 35.5331 19.2501 35.5329 19.2501C35.5328 19.2501 35.5326 19.2501 35.5325 19.2501C35.5322 19.2502 35.5319 19.2502 35.5317 19.2502C35.5313 19.2503 35.5309 19.2503 35.5305 19.2503C35.5299 19.2504 35.5295 19.2505 35.5293 19.2505C35.529 19.2505 35.5297 19.2504 35.5312 19.2503C35.5344 19.25 35.5412 19.2493 35.5512 19.2484C35.5712 19.2467 35.6029 19.2444 35.6426 19.2427C35.7252 19.2392 35.8265 19.2391 35.9221 19.2483C36.0278 19.2585 36.0708 19.275 36.0672 19.2734C36.0627 19.2714 35.9005 19.198 35.8197 18.9756L37.6996 18.2929ZM35.4101 17.2569L31.5612 17.2803L31.5733 19.2802L35.4222 19.2569L35.4101 17.2569ZM31.5672 18.2803C31.6995 17.289 31.6993 17.289 31.699 17.289C31.6989 17.289 31.6987 17.2889 31.6985 17.2889C31.6981 17.2889 31.6978 17.2888 31.6974 17.2888C31.6967 17.2887 31.696 17.2886 31.6952 17.2885C31.6937 17.2883 31.6921 17.2881 31.6904 17.2879C31.687 17.2874 31.6833 17.287 31.6793 17.2865C31.6713 17.2856 31.6619 17.2846 31.6514 17.2836C31.6303 17.2815 31.6041 17.2794 31.5735 17.2777C31.5134 17.2744 31.4317 17.2728 31.3369 17.2786C31.166 17.2891 30.863 17.3284 30.5642 17.5038L31.5761 19.2288C31.4889 19.28 31.4344 19.2764 31.4592 19.2749C31.4622 19.2747 31.4651 19.2748 31.4651 19.2748C31.4646 19.2748 31.4624 19.2746 31.4578 19.2742C31.4554 19.2739 31.4524 19.2736 31.4487 19.2732C31.4468 19.273 31.4447 19.2727 31.4424 19.2724C31.4413 19.2723 31.4401 19.2721 31.4388 19.272C31.4382 19.2719 31.4376 19.2718 31.4369 19.2717C31.4366 19.2717 31.4363 19.2716 31.4359 19.2716C31.4358 19.2716 31.4355 19.2715 31.4354 19.2715C31.4352 19.2715 31.4349 19.2715 31.5672 18.2803ZM30.5627 17.5046C30.2727 17.6754 30.0879 17.9181 29.9986 18.0478C29.9468 18.1231 29.9067 18.191 29.8789 18.2413C29.8647 18.2668 29.8532 18.2889 29.8443 18.3063C29.8398 18.3151 29.836 18.3228 29.8328 18.3293C29.8313 18.3325 29.8298 18.3355 29.8286 18.3381C29.8279 18.3394 29.8273 18.3407 29.8268 18.3418C29.8265 18.3424 29.8262 18.343 29.826 18.3435C29.8258 18.3438 29.8257 18.3441 29.8256 18.3443C29.8255 18.3445 29.8254 18.3447 29.8254 18.3447C29.8253 18.3449 29.8252 18.3451 30.7296 18.7719C31.6339 19.1986 31.6339 19.1988 31.6338 19.199C31.6337 19.1991 31.6337 19.1993 31.6336 19.1994C31.6335 19.1996 31.6334 19.1999 31.6332 19.2001C31.633 19.2006 31.6328 19.2011 31.6326 19.2015C31.6322 19.2024 31.6318 19.2032 31.6314 19.204C31.6306 19.2056 31.63 19.2069 31.6294 19.2081C31.6283 19.2103 31.6276 19.2118 31.6272 19.2126C31.6264 19.214 31.627 19.2129 31.6286 19.21C31.6323 19.2032 31.6387 19.1925 31.6461 19.1817C31.6756 19.1389 31.661 19.1788 31.5776 19.228L30.5627 17.5046ZM30.7296 18.7719C29.7955 18.4148 29.7955 18.4147 29.7956 18.4146C29.7956 18.4146 29.7956 18.4146 29.7956 18.4145C29.7956 18.4145 29.7956 18.4145 29.7956 18.4145C29.7956 18.4145 29.7956 18.4145 29.7955 18.4147C29.7954 18.4151 29.7951 18.4159 29.7947 18.417C29.7938 18.4192 29.7924 18.4229 29.7904 18.4281C29.7864 18.4384 29.7801 18.4544 29.7717 18.4757C29.7549 18.5183 29.7295 18.5819 29.6963 18.6629C29.6299 18.8251 29.5327 19.0564 29.4109 19.3287C29.1654 19.8775 28.8285 20.5741 28.4509 21.2034L30.166 22.2324C30.601 21.5073 30.9747 20.7309 31.2366 20.1453C31.3685 19.8504 31.4742 19.5991 31.5473 19.4206C31.5838 19.3312 31.6123 19.2599 31.632 19.2101C31.6418 19.1852 31.6494 19.1657 31.6547 19.1521C31.6574 19.1452 31.6595 19.1399 31.661 19.136C31.6617 19.1341 31.6623 19.1325 31.6627 19.1313C31.663 19.1308 31.6632 19.1303 31.6633 19.1299C31.6634 19.1297 31.6634 19.1295 31.6635 19.1294C31.6635 19.1293 31.6636 19.1292 31.6636 19.1292C31.6636 19.1291 31.6636 19.129 30.7296 18.7719ZM28.451 21.2034C27.6062 22.6111 27.07 23.2545 26.7678 23.5223C26.6176 23.6555 26.5906 23.6362 26.6733 23.6147C26.7994 23.5819 26.9898 23.5937 27.1626 23.7027L26.0953 25.3941C26.4084 25.5917 26.7895 25.651 27.1766 25.5503C27.5201 25.461 27.8241 25.2586 28.0943 25.0191C28.6333 24.5414 29.2966 23.6811 30.1659 22.2325L28.451 21.2034ZM27.165 23.7042C27.2707 23.7714 27.1738 23.8059 27.1359 23.3657C27.0994 22.9419 27.1394 22.5619 27.1394 22.0006H25.1394C25.1394 22.3255 25.098 23.0123 25.1432 23.5373C25.187 24.046 25.3349 24.9113 26.093 25.3926L27.165 23.7042ZM27.1394 22.0006C27.1394 21.3325 27.1651 20.7623 27.1858 20.2554C27.2056 19.7676 27.2235 19.2932 27.1931 18.8883C27.1629 18.487 27.0781 18.0108 26.7845 17.5967C26.4671 17.1489 26.0124 16.9183 25.5372 16.8057L25.0763 18.7519C25.2315 18.7887 25.1962 18.8143 25.153 18.7534C25.1337 18.7263 25.1783 18.7677 25.1987 19.0383C25.2188 19.3054 25.2085 19.6574 25.1874 20.1741C25.1672 20.6718 25.1394 21.2842 25.1394 22.0006H27.1394ZM25.5383 16.806C25.0375 16.6868 24.6542 16.6148 23.5203 16.6031L23.4997 18.603C24.5069 18.6134 24.7396 18.6717 25.0752 18.7516L25.5383 16.806ZM23.5198 16.6031C22.8341 16.5963 22.1604 16.5967 21.5672 16.6429C20.9924 16.6877 20.3851 16.7816 19.8835 17.0222L20.7483 18.8255C20.9053 18.7502 21.2082 18.677 21.7225 18.6369C22.2183 18.5983 22.8123 18.5962 23.5001 18.603L23.5198 16.6031ZM19.8835 17.0222C19.5147 17.199 19.2003 17.4722 18.9976 17.7349C18.9125 17.8451 18.7569 18.0667 18.7032 18.3557C18.6752 18.5068 18.6508 18.8126 18.84 19.1223C19.0506 19.4672 19.3842 19.5917 19.6164 19.6221L19.876 17.639C20.0566 17.6626 20.3555 17.7665 20.5468 18.0798C20.7166 18.3578 20.6882 18.6209 20.6696 18.7208C20.6349 18.9077 20.5525 18.9937 20.5809 18.9568C20.6051 18.9254 20.6788 18.8588 20.7483 18.8255L19.8835 17.0222ZM19.6167 19.6221C19.6952 19.6324 19.8148 19.6556 19.9257 19.6996C20.0426 19.746 20.079 19.7872 20.0813 19.7903L21.6823 18.5916C21.3792 18.1868 20.9749 17.9643 20.6638 17.8408C20.3468 17.7149 20.0514 17.6619 19.8756 17.639L19.6167 19.6221ZM20.0811 19.79C20.0796 19.7879 20.1107 19.8342 20.148 19.9616C20.1826 20.0797 20.2092 20.2213 20.228 20.3694C20.2465 20.5149 20.2553 20.6497 20.2593 20.7485C20.2613 20.7973 20.2621 20.8358 20.2624 20.8606C20.2625 20.8729 20.2625 20.8818 20.2625 20.8867C20.2625 20.8891 20.2625 20.8906 20.2625 20.891C20.2625 20.8912 20.2625 20.8911 20.2625 20.8908C20.2625 20.8906 20.2625 20.8904 20.2625 20.8901C20.2625 20.8899 20.2625 20.8898 20.2625 20.8896C20.2625 20.8895 20.2625 20.8893 20.2625 20.8893C20.2625 20.8891 20.2625 20.889 21.2625 20.9006C22.2624 20.9123 22.2624 20.9121 22.2624 20.9119C22.2624 20.9118 22.2624 20.9117 22.2624 20.9115C22.2624 20.9113 22.2624 20.911 22.2624 20.9107C22.2624 20.9101 22.2624 20.9095 22.2624 20.9087C22.2625 20.9072 22.2625 20.9055 22.2625 20.9034C22.2625 20.8993 22.2625 20.8941 22.2625 20.8877C22.2625 20.875 22.2625 20.858 22.2622 20.837C22.2617 20.795 22.2605 20.737 22.2576 20.6667C22.2519 20.5274 22.2395 20.3337 22.2121 20.1177C22.1649 19.7458 22.0499 19.083 21.6826 18.592L20.0811 19.79ZM21.2625 20.9006C20.2649 20.97 20.2649 20.9699 20.2649 20.9698C20.2649 20.9698 20.2649 20.9697 20.2649 20.9696C20.2649 20.9696 20.2649 20.9696 20.2649 20.9696C20.2649 20.9697 20.2649 20.97 20.2649 20.9704C20.265 20.9714 20.2651 20.9731 20.2653 20.9755C20.2656 20.9803 20.2661 20.9882 20.2667 20.9987C20.268 21.0199 20.2699 21.0521 20.2721 21.0939C20.2765 21.1775 20.2821 21.2989 20.2865 21.4464C20.2955 21.7434 20.2997 22.1372 20.2822 22.5371C20.2643 22.9462 20.2252 23.3197 20.1611 23.5928C20.1289 23.73 20.099 23.8035 20.0847 23.8311C20.0651 23.8689 20.1056 23.7658 20.2613 23.6826L21.2044 25.4463C21.5492 25.2619 21.748 24.9685 21.8608 24.7507C21.9788 24.5226 22.0553 24.2752 22.1082 24.0499C22.2143 23.5982 22.2603 23.0809 22.2803 22.6246C22.3007 22.1592 22.2955 21.7128 22.2856 21.386C22.2806 21.2216 22.2744 21.0852 22.2694 20.989C22.2668 20.9409 22.2646 20.9027 22.2629 20.8759C22.2621 20.8625 22.2614 20.852 22.261 20.8444C22.2607 20.8407 22.2605 20.8377 22.2604 20.8355C22.2603 20.8344 22.2602 20.8335 22.2602 20.8328C22.2601 20.8324 22.2601 20.8321 22.2601 20.8319C22.2601 20.8317 22.2601 20.8316 22.2601 20.8315C22.2601 20.8314 22.2601 20.8312 21.2625 20.9006ZM20.2605 23.683C20.3753 23.6215 20.5191 23.6155 20.6148 23.6474C20.6604 23.6626 20.6046 23.6569 20.4374 23.4908C20.1022 23.1577 19.5969 22.466 18.8358 21.1755L17.1131 22.1915C17.8808 23.4931 18.4955 24.3807 19.0277 24.9095C19.2942 25.1743 19.609 25.4202 19.9815 25.5445C20.4041 25.6856 20.8312 25.6462 21.2052 25.4458L20.2605 23.683ZM18.8359 21.1756C18.4681 20.5517 18.1404 19.886 17.9024 19.3697C17.7842 19.1132 17.6897 18.8969 17.6251 18.7458C17.5928 18.6703 17.5681 18.6113 17.5518 18.5717C17.5436 18.552 17.5375 18.5371 17.5336 18.5275C17.5316 18.5227 17.5302 18.5193 17.5294 18.5172C17.529 18.5161 17.5287 18.5154 17.5285 18.5151C17.5285 18.5149 17.5284 18.5148 17.5284 18.5148C17.5284 18.5148 17.5284 18.5148 17.5284 18.5149C17.5285 18.5149 17.5285 18.5149 17.5285 18.515C17.5285 18.515 17.5285 18.5151 16.6009 18.8886C15.6733 19.2622 15.6733 19.2623 15.6734 19.2624C15.6734 19.2624 15.6734 19.2625 15.6734 19.2625C15.6735 19.2627 15.6736 19.2628 15.6736 19.263C15.6738 19.2634 15.674 19.2638 15.6742 19.2643C15.6746 19.2654 15.6752 19.2668 15.6759 19.2686C15.6773 19.2721 15.6793 19.2771 15.6819 19.2834C15.687 19.2959 15.6944 19.3139 15.7039 19.3369C15.7229 19.3828 15.7505 19.4487 15.7859 19.5315C15.8566 19.697 15.9587 19.9307 16.0861 20.2069C16.3392 20.7562 16.6983 21.4879 17.113 22.1914L18.8359 21.1756ZM16.6009 18.8886C17.5243 18.5048 17.5242 18.5046 17.5241 18.5044C17.5241 18.5043 17.524 18.5041 17.524 18.504C17.5239 18.5037 17.5237 18.5034 17.5236 18.5031C17.5234 18.5025 17.5231 18.5019 17.5229 18.5013C17.5224 18.5001 17.5218 18.4988 17.5212 18.4974C17.5201 18.4947 17.5188 18.4917 17.5173 18.4883C17.5145 18.4817 17.511 18.4739 17.507 18.465C17.499 18.4474 17.4887 18.4252 17.476 18.3996C17.4509 18.349 17.415 18.2814 17.368 18.2056C17.283 18.0687 17.1217 17.8395 16.8686 17.6566L15.6972 19.2776C15.6481 19.2422 15.6459 19.2237 15.6689 19.2607C15.6759 19.2719 15.6812 19.282 15.6839 19.2874C15.685 19.2898 15.6852 19.2902 15.6842 19.2881C15.6837 19.287 15.683 19.2853 15.6818 19.2827C15.6813 19.2814 15.6807 19.2799 15.6799 19.2783C15.6796 19.2774 15.6792 19.2765 15.6788 19.2755C15.6786 19.2751 15.6784 19.2746 15.6782 19.2741C15.6781 19.2738 15.678 19.2736 15.6779 19.2733C15.6778 19.2732 15.6777 19.273 15.6777 19.2729C15.6776 19.2727 15.6775 19.2725 16.6009 18.8886ZM16.8685 17.6565C16.6198 17.4768 16.3557 17.3792 16.1899 17.328C16.1005 17.3004 16.0226 17.2812 15.9649 17.2685C15.9358 17.262 15.9112 17.2571 15.8919 17.2535C15.8823 17.2517 15.8739 17.2502 15.867 17.249C15.8635 17.2484 15.8604 17.2478 15.8577 17.2474C15.8563 17.2472 15.855 17.2469 15.8538 17.2467C15.8532 17.2466 15.8526 17.2466 15.8521 17.2465C15.8518 17.2464 15.8515 17.2464 15.8513 17.2463C15.8511 17.2463 15.8509 17.2463 15.8509 17.2463C15.8507 17.2462 15.8505 17.2462 15.6919 18.2336C15.5333 19.2209 15.5331 19.2209 15.5329 19.2208C15.5329 19.2208 15.5327 19.2208 15.5326 19.2208C15.5323 19.2207 15.5321 19.2207 15.5318 19.2207C15.5314 19.2206 15.5309 19.2205 15.5305 19.2204C15.5296 19.2203 15.5289 19.2202 15.5281 19.2201C15.5267 19.2198 15.5255 19.2196 15.5247 19.2195C15.5229 19.2192 15.5222 19.219 15.5224 19.2191C15.523 19.2192 15.5271 19.22 15.5342 19.2215C15.5488 19.2247 15.5724 19.2305 15.5998 19.239C15.6679 19.26 15.6993 19.2792 15.6973 19.2776L16.8685 17.6565ZM15.6855 17.2336L12.0281 17.2569L12.0409 19.2569L15.6983 19.2335L15.6855 17.2336ZM12.0345 18.2569C12.0077 17.2573 12.0075 17.2573 12.0073 17.2573C12.0072 17.2573 12.007 17.2573 12.0069 17.2573C12.0066 17.2573 12.0063 17.2573 12.006 17.2573C12.0053 17.2573 12.0047 17.2574 12.004 17.2574C12.0026 17.2574 12.0011 17.2575 11.9994 17.2575C11.9961 17.2576 11.9922 17.2578 11.9878 17.258C11.9789 17.2583 11.9678 17.2588 11.9547 17.2596C11.9287 17.261 11.8943 17.2634 11.8535 17.2671C11.7736 17.2745 11.6613 17.2881 11.5354 17.3136C11.4129 17.3385 11.2539 17.3795 11.0902 17.4499C10.9343 17.517 10.7112 17.6376 10.5246 17.8549L12.0419 19.1579C11.9963 19.211 11.9536 19.2433 11.9279 19.2605C11.902 19.2777 11.8846 19.2854 11.8812 19.2869C11.8773 19.2885 11.8934 19.2818 11.9335 19.2736C11.9703 19.2662 12.008 19.2614 12.0375 19.2586C12.0514 19.2574 12.0615 19.2567 12.0663 19.2564C12.0687 19.2563 12.0696 19.2563 12.0688 19.2563C12.0685 19.2563 12.0677 19.2564 12.0664 19.2564C12.0658 19.2564 12.0651 19.2564 12.0642 19.2565C12.0638 19.2565 12.0634 19.2565 12.0629 19.2565C12.0626 19.2565 12.0624 19.2565 12.0621 19.2565C12.062 19.2565 12.0618 19.2565 12.0617 19.2565C12.0615 19.2565 12.0613 19.2565 12.0345 18.2569ZM10.5258 17.8535C10.1305 18.3121 10.1948 18.8719 10.2191 19.044C10.237 19.1707 10.2645 19.2792 10.2862 19.3539C10.2974 19.3925 10.3079 19.425 10.3165 19.4499C10.3208 19.4625 10.3246 19.4733 10.3278 19.4822C10.3294 19.4867 10.3309 19.4907 10.3322 19.4942C10.3329 19.4959 10.3335 19.4976 10.3341 19.4991C10.3344 19.4999 10.3346 19.5006 10.3349 19.5013C10.335 19.5016 10.3352 19.502 10.3353 19.5023C10.3354 19.5025 10.3355 19.5027 10.3355 19.5028C10.3356 19.503 10.3357 19.5033 11.2695 19.1455C12.2033 18.7878 12.2034 18.788 12.2035 18.7882C12.2035 18.7883 12.2036 18.7885 12.2037 18.7887C12.2038 18.789 12.2039 18.7893 12.204 18.7896C12.2042 18.7902 12.2044 18.7908 12.2047 18.7913C12.2051 18.7924 12.2055 18.7934 12.2058 18.7944C12.2065 18.7962 12.2071 18.7978 12.2075 18.799C12.2084 18.8015 12.2089 18.8029 12.209 18.8032C12.2092 18.8038 12.2082 18.801 12.2067 18.7958C12.2031 18.7831 12.2004 18.7708 12.1994 18.7637C12.1977 18.7521 12.2035 18.7783 12.196 18.8316C12.1887 18.8847 12.1598 19.0211 12.0407 19.1593L10.5258 17.8535ZM11.2695 19.1455C10.3526 19.5447 10.3527 19.5449 10.3528 19.545C10.3528 19.5451 10.3529 19.5453 10.3529 19.5454C10.3531 19.5458 10.3533 19.5462 10.3535 19.5468C10.354 19.5478 10.3546 19.5493 10.3554 19.5512C10.3571 19.5549 10.3594 19.5602 10.3624 19.5671C10.3684 19.5807 10.3772 19.6006 10.3886 19.6263C10.4114 19.6776 10.4449 19.7524 10.4884 19.8482C10.5754 20.0397 10.7026 20.3153 10.8652 20.6558C11.1901 21.3362 11.6575 22.2782 12.2285 23.3265C13.3585 25.4011 14.9387 27.9756 16.6612 29.7363L18.0908 28.3376C16.5703 26.7835 15.0973 24.4123 13.9848 22.3699C13.4345 21.3596 12.9834 20.4503 12.67 19.794C12.5134 19.4661 12.3916 19.2021 12.3093 19.021C12.2682 18.9304 12.237 18.8607 12.2163 18.8141C12.2059 18.7908 12.1982 18.7733 12.1932 18.7619C12.1907 18.7562 12.1889 18.752 12.1877 18.7494C12.1871 18.7481 12.1867 18.7472 12.1865 18.7467C12.1864 18.7464 12.1863 18.7463 12.1863 18.7462C12.1863 18.7462 12.1863 18.7462 12.1863 18.7462C12.1863 18.7462 12.1864 18.7463 11.2695 19.1455ZM16.6613 29.7364C18.2941 31.4046 20.0484 32.1929 21.4038 32.5609C22.0799 32.7444 22.6569 32.8236 23.0723 32.8566C23.2803 32.8731 23.4485 32.8781 23.5695 32.8787C23.63 32.879 23.6788 32.8782 23.7149 32.8772C23.7329 32.8766 23.7478 32.8761 23.7594 32.8756C23.7652 32.8753 23.7702 32.8751 23.7743 32.8749C23.7764 32.8748 23.7782 32.8747 23.7799 32.8746C23.7807 32.8745 23.7815 32.8745 23.7822 32.8744C23.7826 32.8744 23.7831 32.8744 23.7833 32.8744C23.7838 32.8743 23.7842 32.8743 23.7254 31.8761C23.6665 30.8778 23.6669 30.8778 23.6674 30.8777C23.6675 30.8777 23.6679 30.8777 23.6682 30.8777C23.6687 30.8777 23.6692 30.8776 23.6696 30.8776C23.6704 30.8776 23.671 30.8775 23.6715 30.8775C23.6724 30.8775 23.6725 30.8775 23.6718 30.8775C23.6704 30.8776 23.666 30.8777 23.6586 30.8779C23.6437 30.8784 23.6171 30.8789 23.5795 30.8787C23.5042 30.8783 23.3855 30.8751 23.2306 30.8628C22.9201 30.8382 22.4674 30.7772 21.9278 30.6308C20.852 30.3387 19.4316 29.7075 18.0906 28.3375L16.6613 29.7364ZM23.7254 32.8761H25.2554V30.8761H23.7254V32.8761Z" fill="#808080"/>
</svg>
