<svg width="48" height="48" viewBox="0 0 48 48" fill="none" xmlns="http://www.w3.org/2000/svg">
<path fill-rule="evenodd" clip-rule="evenodd" d="M34.3298 18.5783L34.3295 18.577C34.2101 18.1185 33.8645 17.7857 33.4723 17.678L33.4709 17.6777C33.1845 17.5989 32.4941 17.5046 31.4472 17.4262C30.4579 17.3521 29.303 17.3017 28.1912 17.2677C27.0826 17.2339 26.0333 17.217 25.26 17.2085C24.8738 17.2042 24.5574 17.2021 24.3382 17.2011C24.2286 17.2005 24.1433 17.2003 24.0858 17.2001L24.0208 17.2L24.0047 17.2L24.0009 17.2L24 17.2H24H23.9999H23.9999L23.999 17.2L23.9952 17.2L23.9791 17.2L23.9141 17.2001C23.8566 17.2003 23.7713 17.2005 23.6617 17.2011C23.4425 17.2021 23.1261 17.2042 22.7399 17.2085C21.9666 17.217 20.9173 17.2339 19.8087 17.2677C18.6969 17.3017 17.5419 17.3521 16.5526 17.4262C15.5057 17.5046 14.8152 17.5989 14.5288 17.6777L14.5275 17.678C14.1352 17.7857 13.7896 18.1185 13.6703 18.577L13.67 18.5782C13.4605 19.381 13.3315 20.7737 13.2643 22.1061C13.2321 22.743 13.216 23.3202 13.2079 23.7383C13.2039 23.9469 13.2019 24.1149 13.2009 24.2295C13.2004 24.2868 13.2002 24.3307 13.2001 24.3597L13.2 24.3917L13.2 24.3989L13.2 24.3997V24.3998V24.3998V24.4002V24.4002V24.4003L13.2 24.4011L13.2 24.4083L13.2001 24.4403C13.2002 24.4693 13.2004 24.5132 13.2009 24.5705C13.2019 24.6852 13.2039 24.8531 13.2079 25.0617C13.216 25.4798 13.2321 26.057 13.2643 26.6939C13.3315 28.0263 13.4605 29.419 13.67 30.2219L13.6703 30.223C13.7896 30.6814 14.1352 31.0145 14.5277 31.1222L14.5287 31.1225C14.8151 31.2013 15.5057 31.2955 16.5526 31.3739C17.5419 31.448 18.6968 31.4984 19.8087 31.5323C20.9172 31.5661 21.9666 31.5831 22.7399 31.5916C23.1261 31.5958 23.4425 31.5979 23.6617 31.599C23.7713 31.5995 23.8566 31.5998 23.9141 31.5999L23.9791 31.6L23.9952 31.6L23.999 31.6H23.9999H23.9999H24H24H24.0009L24.0047 31.6L24.0208 31.6L24.0858 31.5999C24.1433 31.5998 24.2286 31.5995 24.3382 31.599C24.5574 31.5979 24.8738 31.5958 25.26 31.5916C26.0333 31.5831 27.0827 31.5661 28.1912 31.5323C29.303 31.4984 30.4579 31.448 31.4473 31.3739C32.4941 31.2955 33.1846 31.2013 33.471 31.1225L33.4721 31.1222C33.8645 31.0145 34.2101 30.6814 34.3295 30.223L34.3298 30.2218C34.5393 29.4189 34.6684 28.0262 34.7356 26.6939C34.7678 26.057 34.7839 25.4798 34.792 25.0617C34.796 24.8531 34.798 24.6852 34.799 24.5705C34.7995 24.5132 34.7997 24.4693 34.7998 24.4403L34.7999 24.4083L34.7999 24.4011L34.8 24.4003V24.4002V24.3998V24.3997L34.7999 24.3989L34.7999 24.3917L34.7998 24.3597C34.7997 24.3307 34.7995 24.2868 34.799 24.2295C34.798 24.1149 34.796 23.9469 34.792 23.7383C34.7839 23.3202 34.7678 22.743 34.7356 22.1061C34.6684 20.7737 34.5393 19.3811 34.3298 18.5783ZM36.8 24.4C36.8 24.4 36.8 28.6768 36.265 30.7268C35.9706 31.8578 35.1031 32.7484 34.0016 33.0508C32.0053 33.6 24 33.6 24 33.6C24 33.6 15.9946 33.6 13.9982 33.0508C12.8967 32.7484 12.0292 31.8578 11.7348 30.7268C11.2 28.6768 11.2 24.4 11.2 24.4C11.2 24.4 11.2 20.1231 11.7348 18.0732C12.0292 16.9422 12.8967 16.0516 13.9982 15.7493C15.9946 15.2 24 15.2 24 15.2C24 15.2 32.0053 15.2 34.0016 15.7493C35.1031 16.0516 35.9706 16.9422 36.265 18.0732C36.8 20.1231 36.8 24.4 36.8 24.4Z" fill="#808080"/>
<path d="M21.5999 28.8V20.8L27.9999 24.8001L21.5999 28.8Z" fill="#808080"/>
</svg>
